<svg width="20" height="21" viewBox="0 0 20 21" fill="none" xmlns="http://www.w3.org/2000/svg">
<path d="M7.97422 16.1873C7.81589 16.1873 7.65755 16.129 7.53255 16.004L2.47422 10.9457C2.23255 10.704 2.23255 10.304 2.47422 10.0623L7.53255 5.004C7.77422 4.76234 8.17422 4.76234 8.41589 5.004C8.65755 5.24567 8.65755 5.64567 8.41589 5.88734L3.79922 10.504L8.41589 15.1207C8.65755 15.3623 8.65755 15.7623 8.41589 16.004C8.29922 16.129 8.13255 16.1873 7.97422 16.1873Z" fill="#003D95"/>
<path d="M17.0836 11.1289H3.05859C2.71693 11.1289 2.43359 10.8456 2.43359 10.5039C2.43359 10.1622 2.71693 9.87891 3.05859 9.87891H17.0836C17.4253 9.87891 17.7086 10.1622 17.7086 10.5039C17.7086 10.8456 17.4253 11.1289 17.0836 11.1289Z" fill="#003D95"/>
</svg>
