<svg width="49" height="49" viewBox="0 0 49 49" fill="none" xmlns="http://www.w3.org/2000/svg">
<path d="M35.9805 45.9269H25.0204C24.2004 45.9269 23.5204 45.2469 23.5204 44.4269C23.5204 43.6069 24.2004 42.9269 25.0204 42.9269H35.9805C39.3005 42.9269 42.0005 40.2269 42.0005 36.9069V36.0269H39.7005C36.6805 36.0269 34.1205 33.7869 33.8805 30.9069C33.7205 29.2469 34.3204 27.6269 35.5204 26.4469C36.5404 25.4069 37.9405 24.8269 39.4405 24.8269H41.9805V23.4469C41.9805 20.1269 39.2804 17.4269 35.9604 17.4269H13.0005C9.68046 17.4269 6.98047 20.1269 6.98047 23.4469V26.9069C6.98047 27.7269 6.30047 28.4069 5.48047 28.4069C4.66047 28.4069 3.98047 27.7269 3.98047 26.9069V23.4469C3.98047 18.4669 8.02046 14.4269 13.0005 14.4269H35.9604C40.9404 14.4269 44.9805 18.4669 44.9805 23.4469V26.3269C44.9805 27.1469 44.3005 27.8269 43.4805 27.8269H39.4405C38.7405 27.8269 38.1005 28.0869 37.6405 28.5669C37.0605 29.1269 36.7804 29.8869 36.8604 30.6469C36.9804 31.9669 38.2405 33.0269 39.6805 33.0269H43.4805C44.3005 33.0269 44.9805 33.7069 44.9805 34.5269V36.9069C45.0005 41.8869 40.9605 45.9269 35.9805 45.9269Z" fill="#FEFEFE"/>
<path d="M5.5 26.7469C4.68 26.7469 4 26.0669 4 25.2469V16.107C4 13.127 5.88 10.4269 8.66 9.36689L24.54 3.36689C26.18 2.74689 28 2.96699 29.42 3.96699C30.86 4.96699 31.7 6.58697 31.7 8.32697V15.9269C31.7 16.7469 31.02 17.4269 30.2 17.4269C29.38 17.4269 28.7 16.7469 28.7 15.9269V8.32697C28.7 7.56697 28.34 6.86695 27.7 6.42695C27.06 5.98695 26.3 5.88694 25.58 6.16694L9.70001 12.1669C8.08001 12.7869 6.98001 14.367 6.98001 16.107V25.2469C7.00001 26.0869 6.32 26.7469 5.5 26.7469Z" fill="#FEFEFE"/>
<path d="M39.7009 36.0267C36.6809 36.0267 34.1209 33.7867 33.8809 30.9067C33.7209 29.2467 34.3209 27.6268 35.5209 26.4468C36.5409 25.4068 37.9409 24.8268 39.4409 24.8268H43.6009C45.5809 24.8868 47.1009 26.4467 47.1009 28.3667V32.4868C47.1009 34.4068 45.5809 35.9667 43.6609 36.0267H39.7009ZM43.5609 27.8268H39.4609C38.7609 27.8268 38.1209 28.0868 37.6609 28.5668C37.0809 29.1268 36.8009 29.8867 36.8809 30.6467C37.0009 31.9667 38.2609 33.0267 39.7009 33.0267H43.6209C43.8809 33.0267 44.1209 32.7868 44.1209 32.4868V28.3667C44.1209 28.0667 43.8809 27.8468 43.5609 27.8268Z" fill="#FEFEFE"/>
<path d="M28.5 25.9269H14.5C13.68 25.9269 13 25.2469 13 24.4269C13 23.6069 13.68 22.9269 14.5 22.9269H28.5C29.32 22.9269 30 23.6069 30 24.4269C30 25.2469 29.32 25.9269 28.5 25.9269Z" fill="#FEFEFE"/>
<path d="M19.5 39.8069C18.68 39.8069 18 39.1269 18 38.3069V35.7468C18 35.3068 17.64 34.9269 17.18 34.9269H6.5C5.68 34.9269 5 34.2469 5 33.4269C5 32.6069 5.68 31.9269 6.5 31.9269H17.18C19.28 31.9269 21 33.6468 21 35.7468V38.3069C21 39.1269 20.32 39.8069 19.5 39.8069Z" fill="#FEFEFE"/>
<path d="M8.93891 37.3668C8.55891 37.3668 8.17891 37.2268 7.87891 36.9268L5.43891 34.4869C4.85891 33.9069 4.85891 32.9468 5.43891 32.3668L7.87891 29.9268C8.45891 29.3468 9.4189 29.3468 9.9989 29.9268C10.5789 30.5068 10.5789 31.4668 9.9989 32.0468L8.6189 33.4268L9.9989 34.8068C10.5789 35.3868 10.5789 36.3468 9.9989 36.9268C9.6989 37.2268 9.31891 37.3668 8.93891 37.3668Z" fill="#FEFEFE"/>
<path d="M19.5 45.4871H8.82001C6.72001 45.4871 5 43.767 5 41.667V39.1071C5 38.2871 5.68 37.6071 6.5 37.6071C7.32 37.6071 8 38.2871 8 39.1071V41.667C8 42.107 8.36001 42.4871 8.82001 42.4871H19.5C20.32 42.4871 21 43.1671 21 43.9871C21 44.8071 20.32 45.4871 19.5 45.4871Z" fill="#FEFEFE"/>
<path d="M17.0614 47.9268C16.6814 47.9268 16.3014 47.7869 16.0014 47.4869C15.4214 46.9069 15.4214 45.9468 16.0014 45.3668L17.3814 43.9869L16.0014 42.6069C15.4214 42.0269 15.4214 41.0669 16.0014 40.4869C16.5814 39.9069 17.5414 39.9069 18.1214 40.4869L20.5614 42.9268C21.1414 43.5068 21.1414 44.4668 20.5614 45.0468L18.1214 47.4869C17.8414 47.7869 17.4414 47.9268 17.0614 47.9268Z" fill="#FEFEFE"/>
</svg>
