<svg width="43" height="34" viewBox="0 0 43 34" fill="none" xmlns="http://www.w3.org/2000/svg">
<g clip-path="url(#clip0_917_6805)">
<path d="M2.42256 2.57031C2.42256 2.57031 0.857016 4.54003 -0.00195312 4.73656C-0.00195312 4.73656 0.820649 4.92122 2.15413 4.73656C3.48761 4.5519 3.42094 4.41296 3.42094 4.41296L2.42256 2.57031Z" fill="#A7A7A7"/>
<path d="M4.92894 8.30015C4.70088 7.48321 4.42842 6.67973 4.11284 5.8934C3.79877 5.11017 3.44264 4.34502 3.04605 3.60141C2.82092 3.17962 2.58309 2.7656 2.33255 2.35935C2.31047 2.32329 2.25419 2.35627 2.2767 2.39232C2.71853 3.10935 3.12106 3.85058 3.48246 4.61265C3.84502 5.37529 4.16561 6.15778 4.44274 6.95652C4.59832 7.40586 4.74003 7.86018 4.8679 8.31949C4.86904 8.32368 4.87097 8.3276 4.8736 8.33102C4.87623 8.33445 4.8795 8.33731 4.88321 8.33946C4.88693 8.3416 4.89103 8.34298 4.89528 8.34351C4.89952 8.34405 4.90382 8.34373 4.90795 8.34257C4.91207 8.34142 4.91593 8.33945 4.9193 8.33678C4.92267 8.33411 4.92549 8.3308 4.92761 8.32702C4.92972 8.32324 4.93107 8.31908 4.9316 8.31477C4.93213 8.31046 4.93181 8.30609 4.93068 8.3019L4.92894 8.30015Z" fill="#1A2E35"/>
<path d="M13.56 8.21094H3.15584C2.96837 8.21094 2.81641 8.36526 2.81641 8.55564V17.3727C2.81641 17.5631 2.96837 17.7174 3.15584 17.7174H13.56C13.7475 17.7174 13.8995 17.5631 13.8995 17.3727V8.55564C13.8995 8.36526 13.7475 8.21094 13.56 8.21094Z" fill="#A7A7A7"/>
<g opacity="0.3">
<path d="M2.88599 9.11283H13.827C13.8356 9.11283 13.8439 9.10935 13.85 9.10317C13.8561 9.09698 13.8595 9.0886 13.8595 9.07985C13.8595 9.0711 13.8561 9.06272 13.85 9.05653C13.8439 9.05035 13.8356 9.04688 13.827 9.04688H2.88599C2.87737 9.04688 2.86912 9.05035 2.86303 9.05653C2.85694 9.06272 2.85352 9.0711 2.85352 9.07985C2.85352 9.0886 2.85694 9.09698 2.86303 9.10317C2.86912 9.10935 2.87737 9.11283 2.88599 9.11283Z" fill="black"/>
</g>
<path d="M14.1936 17.7188H4.26347C4.14956 17.7188 4.04032 17.7647 3.95978 17.8465C3.87923 17.9283 3.83398 18.0392 3.83398 18.1549C3.83398 18.2699 3.87871 18.3801 3.95842 18.4618C4.03814 18.5434 4.14638 18.5897 4.25957 18.5906C5.2428 18.5994 7.59328 18.6166 7.65216 18.5871C7.72662 18.5493 9.07136 20.5656 9.29736 20.475L9.84591 22.3397L15.495 20.2249L14.1936 17.7188Z" fill="#1A2E35"/>
<path opacity="0.3" d="M14.1936 17.7188H4.26347C4.14956 17.7188 4.04032 17.7647 3.95978 17.8465C3.87923 17.9283 3.83398 18.0392 3.83398 18.1549C3.83398 18.2699 3.87871 18.3801 3.95842 18.4618C4.03814 18.5434 4.14638 18.5897 4.25957 18.5906C5.2428 18.5994 7.59328 18.6166 7.65216 18.5871C7.72662 18.5493 9.07136 20.5656 9.29736 20.475L9.84591 22.3397L15.495 20.2249L14.1936 17.7188Z" fill="black"/>
<path d="M14.1174 18.4563C14.0888 18.3684 13.3775 16.0575 15.3413 16.1727C17.3052 16.2879 24.3635 18.9628 24.4488 19.5476C24.5341 20.1323 22.7136 21.0288 22.7136 21.0288C22.7136 21.0288 21.2905 23.6009 22.3153 24.9594C23.34 26.318 24.5636 26.5493 26.0152 26.5779C27.4669 26.6064 30.085 26.3756 29.9711 23.4276C29.8572 20.4797 29.8845 18.3117 29.2883 16.8955C28.6922 15.4793 28.8329 13.7738 28.8329 13.6859C28.8329 13.598 30.4828 12.9648 30.4828 12.9648L35.0366 19.7731L33.0727 25.0461C33.0727 25.0461 30.2265 28.5436 30.1412 28.6012C30.0559 28.6588 23.7375 30.0174 23.6518 30.0174C23.566 30.0174 18.0737 29.4964 18.0451 29.3816C18.0165 29.2669 16.9064 26.8381 16.9064 26.8381L14.1174 18.4563Z" fill="#1A2E35"/>
<path d="M38.9219 19.3047C38.9219 19.3047 39.5834 19.6503 40.0579 20.5758C40.5324 21.5013 40.2311 22.1986 40.2311 22.1986L38.9219 19.3047Z" fill="#A7A7A7"/>
<path opacity="0.5" d="M38.9219 19.3047C38.9219 19.3047 39.5834 19.6503 40.0579 20.5758C40.5324 21.5013 40.2311 22.1986 40.2311 22.1986L38.9219 19.3047Z" fill="white"/>
<path d="M18.1066 30.2914V30.6554H17.3594V31.139C17.3594 31.139 21.7547 31.351 21.9339 31.139C22.1131 30.9271 22.5019 29.9766 22.5019 29.9766L18.1066 30.2914Z" fill="#1A2E35"/>
<path d="M10.6745 34.0002C13.748 34.0002 16.2396 31.4756 16.2396 28.3614C16.2396 25.2472 13.748 22.7227 10.6745 22.7227C7.60096 22.7227 5.10938 25.2472 5.10938 28.3614C5.10938 31.4756 7.60096 34.0002 10.6745 34.0002Z" fill="#1A2E35"/>
<path opacity="0.4" d="M10.6757 31.8166C12.5602 31.8166 14.0878 30.2688 14.0878 28.3595C14.0878 26.4501 12.5602 24.9023 10.6757 24.9023C8.79131 24.9023 7.26367 26.4501 7.26367 28.3595C7.26367 30.2688 8.79131 31.8166 10.6757 31.8166Z" fill="white"/>
<g opacity="0.3">
<path d="M10.9472 25.5257V27.2971C10.9471 27.3334 10.94 27.3694 10.9263 27.4029C10.9126 27.4364 10.8925 27.4669 10.8671 27.4925C10.8418 27.5182 10.8118 27.5385 10.7787 27.5523C10.7456 27.5662 10.7102 27.5733 10.6744 27.5732C10.6386 27.5734 10.603 27.5665 10.5698 27.5527C10.5366 27.5389 10.5064 27.5187 10.4809 27.493C10.4555 27.4673 10.4352 27.4368 10.4214 27.4032C10.4076 27.3696 10.4004 27.3335 10.4004 27.2971V25.5257C10.4004 25.4894 10.4075 25.4535 10.4213 25.4201C10.435 25.3866 10.455 25.3562 10.4803 25.3306C10.5056 25.305 10.5356 25.2847 10.5686 25.2709C10.6016 25.257 10.637 25.25 10.6727 25.25C10.7086 25.2497 10.7442 25.2566 10.7774 25.2703C10.8106 25.2841 10.8409 25.3043 10.8664 25.3299C10.8919 25.3555 10.9121 25.386 10.926 25.4196C10.9399 25.4532 10.9471 25.4893 10.9472 25.5257Z" fill="white"/>
</g>
<g opacity="0.3">
<path d="M10.9474 29.4245V31.1969C10.9472 31.2701 10.9183 31.3403 10.8672 31.392C10.8161 31.4437 10.7468 31.4726 10.6747 31.4725C10.639 31.4726 10.6036 31.4655 10.5706 31.4517C10.5376 31.4379 10.5076 31.4176 10.4823 31.392C10.457 31.3664 10.4369 31.336 10.4232 31.3025C10.4095 31.269 10.4024 31.2331 10.4023 31.1969V29.4245C10.4025 29.3513 10.4312 29.2811 10.4823 29.2293C10.5333 29.1775 10.6025 29.1484 10.6747 29.1484C10.7104 29.1484 10.7459 29.1555 10.7789 29.1693C10.812 29.1832 10.842 29.2035 10.8674 29.2291C10.8927 29.2548 10.9128 29.2852 10.9265 29.3188C10.9403 29.3523 10.9474 29.3882 10.9474 29.4245Z" fill="white"/>
</g>
<g opacity="0.3">
<path d="M11.7164 28.0725C11.6539 28.1083 11.58 28.1175 11.5109 28.098C11.4417 28.0786 11.383 28.0321 11.3475 27.9687C11.3295 27.9374 11.3178 27.9027 11.313 27.8667C11.3082 27.8307 11.3105 27.7941 11.3196 27.7591C11.3288 27.724 11.3447 27.6911 11.3664 27.6622C11.3882 27.6334 11.4153 27.6092 11.4463 27.591L12.9616 26.7007C13.0242 26.6643 13.0986 26.6545 13.1683 26.6736C13.238 26.6928 13.2974 26.7392 13.3335 26.8027C13.3513 26.8341 13.3628 26.8688 13.3674 26.9048C13.372 26.9408 13.3696 26.9773 13.3602 27.0123C13.3509 27.0473 13.3349 27.0801 13.313 27.1088C13.2912 27.1375 13.264 27.1615 13.233 27.1795L11.7177 28.0698L11.7164 28.0725Z" fill="white"/>
</g>
<g opacity="0.3">
<path d="M8.0146 29.9104C7.99681 29.879 7.9853 29.8443 7.98074 29.8083C7.97618 29.7723 7.97865 29.7358 7.98802 29.7008C7.9974 29.6658 8.01348 29.633 8.03535 29.6043C8.05722 29.5756 8.08445 29.5516 8.11548 29.5336L9.62863 28.6429C9.69143 28.6061 9.76596 28.5959 9.83607 28.6146C9.90618 28.6333 9.96621 28.6793 10.0031 28.7427C10.0211 28.7742 10.0328 28.8091 10.0376 28.8453C10.0423 28.8814 10.0399 28.9182 10.0306 28.9534C10.0213 28.9887 10.0053 29.0217 9.98342 29.0507C9.96154 29.0796 9.93425 29.1039 9.90312 29.1221L8.3878 30.0129C8.32487 30.0492 8.25033 30.0589 8.18043 30.0397C8.11053 30.0205 8.05093 29.974 8.0146 29.9104Z" fill="white"/>
</g>
<g opacity="0.3">
<path d="M13.332 29.9154C13.2957 29.9787 13.2361 30.0248 13.1663 30.0437C13.0966 30.0626 13.0223 30.0526 12.9597 30.016L11.4444 29.1253C11.4134 29.107 11.3862 29.0827 11.3645 29.0537C11.3427 29.0248 11.3268 28.9918 11.3177 28.9566C11.3085 28.9214 11.3062 28.8847 11.3111 28.8486C11.3159 28.8125 11.3276 28.7777 11.3457 28.7463C11.3823 28.683 11.442 28.6371 11.5119 28.6185C11.5817 28.5998 11.656 28.6101 11.7185 28.6469L13.2338 29.5372C13.2647 29.5553 13.2919 29.5794 13.3137 29.6082C13.3355 29.637 13.3514 29.6698 13.3607 29.7049C13.3699 29.7399 13.3723 29.7765 13.3676 29.8124C13.3629 29.8484 13.3513 29.8831 13.3333 29.9145L13.332 29.9154Z" fill="white"/>
</g>
<g opacity="0.3">
<path d="M10.001 27.972C9.96424 28.0351 9.90434 28.0809 9.83443 28.0993C9.76452 28.1178 9.69026 28.1074 9.62784 28.0705L8.11469 27.1801C8.08371 27.162 8.05656 27.1379 8.03478 27.1092C8.013 27.0804 7.99702 27.0475 7.98777 27.0125C7.97852 26.9775 7.97617 26.9409 7.98087 26.9049C7.98556 26.869 7.9972 26.8343 8.01511 26.8029C8.05159 26.7391 8.11149 26.6925 8.18169 26.6735C8.25189 26.6545 8.32666 26.6645 8.38961 26.7013L9.90493 27.5917C9.93591 27.6097 9.96307 27.6339 9.98484 27.6626C10.0066 27.6914 10.0226 27.7242 10.0318 27.7593C10.0411 27.7943 10.0434 27.8309 10.0388 27.8668C10.0341 27.9028 10.0224 27.9375 10.0045 27.9689L10.001 27.972Z" fill="white"/>
</g>
<path d="M10.6753 27.8945C10.7659 27.8946 10.8544 27.922 10.9297 27.9731C11.0049 28.0243 11.0636 28.097 11.0982 28.182C11.1328 28.267 11.1418 28.3605 11.1241 28.4507C11.1063 28.5409 11.0627 28.6238 10.9986 28.6888C10.9345 28.7538 10.8529 28.798 10.7641 28.816C10.6752 28.8339 10.5831 28.8246 10.4995 28.7894C10.4158 28.7542 10.3443 28.6946 10.294 28.6181C10.2437 28.5416 10.2168 28.4517 10.2168 28.3597C10.2169 28.2363 10.2653 28.118 10.3512 28.0307C10.4372 27.9435 10.5538 27.8945 10.6753 27.8945Z" fill="#1A2E35"/>
<path d="M37.4343 34.0002C40.5078 34.0002 42.9994 31.4756 42.9994 28.3614C42.9994 25.2472 40.5078 22.7227 37.4343 22.7227C34.3607 22.7227 31.8691 25.2472 31.8691 28.3614C31.8691 31.4756 34.3607 34.0002 37.4343 34.0002Z" fill="#1A2E35"/>
<path opacity="0.4" d="M37.4355 31.8166C39.3199 31.8166 40.8476 30.2688 40.8476 28.3595C40.8476 26.4501 39.3199 24.9023 37.4355 24.9023C35.5511 24.9023 34.0234 26.4501 34.0234 28.3595C34.0234 30.2688 35.5511 31.8166 37.4355 31.8166Z" fill="white"/>
<g opacity="0.3">
<path d="M37.7072 25.5257V27.2971C37.7071 27.3334 37.7 27.3694 37.6863 27.4029C37.6726 27.4364 37.6525 27.4669 37.6271 27.4925C37.6018 27.5182 37.5717 27.5385 37.5387 27.5523C37.5056 27.5662 37.4702 27.5733 37.4344 27.5732C37.3623 27.5732 37.2931 27.5441 37.242 27.4924C37.191 27.4406 37.1622 27.3704 37.1621 27.2971V25.5257C37.1622 25.4894 37.1693 25.4535 37.183 25.42C37.1967 25.3866 37.2168 25.3562 37.2421 25.3306C37.2673 25.305 37.2973 25.2847 37.3304 25.2708C37.3634 25.257 37.3987 25.2499 37.4344 25.25C37.5066 25.2499 37.5758 25.2788 37.627 25.3305C37.6781 25.3822 37.707 25.4524 37.7072 25.5257Z" fill="white"/>
</g>
<g opacity="0.3">
<path d="M37.7072 29.422V31.1943C37.707 31.2675 37.6781 31.3377 37.627 31.3894C37.5758 31.4411 37.5066 31.4701 37.4344 31.4699C37.3987 31.47 37.3634 31.4629 37.3304 31.4491C37.2973 31.4353 37.2673 31.415 37.2421 31.3894C37.2168 31.3638 37.1967 31.3334 37.183 31.2999C37.1693 31.2664 37.1622 31.2305 37.1621 31.1943V29.422C37.162 29.3856 37.1689 29.3497 37.1825 29.3161C37.1961 29.2825 37.2161 29.2519 37.2413 29.2262C37.2665 29.2004 37.2964 29.1799 37.3294 29.1659C37.3624 29.1519 37.3978 29.1446 37.4336 29.1445C37.4695 29.1444 37.5051 29.1514 37.5384 29.1653C37.5716 29.1792 37.6018 29.1996 37.6273 29.2254C37.6527 29.2512 37.6729 29.2818 37.6866 29.3156C37.7003 29.3493 37.7073 29.3855 37.7072 29.422Z" fill="white"/>
</g>
<g opacity="0.3">
<path d="M38.4762 28.0725C38.4137 28.1083 38.3398 28.1175 38.2706 28.098C38.2015 28.0786 38.1428 28.0321 38.1073 27.9687C38.0893 27.9374 38.0776 27.9027 38.0728 27.8667C38.068 27.8307 38.0702 27.7941 38.0794 27.7591C38.0886 27.724 38.1045 27.6911 38.1262 27.6622C38.1479 27.6334 38.1751 27.6092 38.206 27.591L39.7213 26.7007C39.784 26.6643 39.8583 26.6545 39.9281 26.6736C39.9978 26.6928 40.0572 26.7392 40.0933 26.8027C40.1111 26.8341 40.1226 26.8688 40.1272 26.9048C40.1318 26.9408 40.1293 26.9773 40.12 27.0123C40.1107 27.0473 40.0946 27.0801 40.0728 27.1088C40.051 27.1375 40.0238 27.1615 39.9928 27.1795L38.4775 28.0698L38.4762 28.0725Z" fill="white"/>
</g>
<g opacity="0.3">
<path d="M34.7744 29.9104C34.7566 29.8789 34.7451 29.8442 34.7405 29.8082C34.7359 29.7723 34.7384 29.7357 34.7478 29.7007C34.7572 29.6657 34.7732 29.6329 34.7951 29.6043C34.817 29.5756 34.8442 29.5516 34.8752 29.5336L36.3906 28.6428C36.4533 28.6061 36.5278 28.5959 36.5978 28.6146C36.6678 28.6333 36.7278 28.6793 36.7646 28.7426C36.7826 28.7742 36.7943 28.8091 36.7991 28.8452C36.8038 28.8814 36.8014 28.9182 36.7921 28.9534C36.7828 28.9887 36.7668 29.0217 36.7449 29.0506C36.723 29.0796 36.6958 29.1038 36.6646 29.1221L35.1493 30.0128C35.1181 30.0311 35.0836 30.043 35.0478 30.0477C35.0121 30.0525 34.9758 30.05 34.9409 30.0405C34.9061 30.031 34.8735 30.0146 34.8449 29.9923C34.8163 29.9699 34.7924 29.9421 34.7744 29.9104Z" fill="white"/>
</g>
<g opacity="0.3">
<path d="M40.0917 29.9154C40.0553 29.9787 39.9957 30.0248 39.9259 30.0437C39.8562 30.0626 39.7819 30.0526 39.7193 30.016L38.204 29.1253C38.1415 29.0883 38.0959 29.0276 38.0774 28.9565C38.0589 28.8855 38.069 28.8098 38.1053 28.7463C38.1419 28.683 38.2016 28.6371 38.2715 28.6185C38.3413 28.5998 38.4156 28.6101 38.4781 28.6469L39.9934 29.5372C40.0244 29.5553 40.0515 29.5794 40.0733 29.6082C40.0951 29.637 40.111 29.6698 40.1203 29.7049C40.1295 29.7399 40.1319 29.7765 40.1272 29.8124C40.1225 29.8484 40.1109 29.8831 40.093 29.9145L40.0917 29.9154Z" fill="white"/>
</g>
<g opacity="0.3">
<path d="M36.7625 27.972C36.7258 28.0351 36.666 28.0808 36.5962 28.0993C36.5263 28.1177 36.4521 28.1074 36.3898 28.0705L34.8745 27.1801C34.8435 27.162 34.8163 27.1379 34.7945 27.1092C34.7728 27.0804 34.7568 27.0475 34.7475 27.0125C34.7383 26.9775 34.7359 26.9409 34.7406 26.9049C34.7453 26.869 34.757 26.8343 34.7749 26.8029C34.8114 26.7391 34.8713 26.6925 34.9415 26.6735C35.0117 26.6545 35.0864 26.6645 35.1494 26.7013L36.6647 27.5917C36.7271 27.6283 36.7726 27.6887 36.7912 27.7594C36.8098 27.8302 36.7999 27.9055 36.7638 27.9689L36.7625 27.972Z" fill="white"/>
</g>
<path d="M37.4331 27.8945C37.5237 27.8946 37.6122 27.922 37.6875 27.9731C37.7627 28.0243 37.8214 28.097 37.856 28.182C37.8906 28.267 37.8996 28.3605 37.8819 28.4507C37.8642 28.5409 37.8205 28.6238 37.7564 28.6888C37.6923 28.7538 37.6107 28.798 37.5219 28.816C37.433 28.8339 37.341 28.8246 37.2573 28.7894C37.1736 28.7542 37.1021 28.6946 37.0518 28.6181C37.0015 28.5416 36.9746 28.4517 36.9746 28.3597C36.9747 28.2363 37.0231 28.118 37.1091 28.0307C37.195 27.9435 37.3116 27.8945 37.4331 27.8945Z" fill="#1A2E35"/>
<path d="M27.6484 11.6822C27.6484 11.6822 27.8125 11.1831 27.7987 11.1831C27.7848 11.1831 29.1365 10.1016 29.1365 10.1016C29.1365 10.1016 30.379 10.7395 30.6951 11.1001C31.0111 11.4606 31.0497 12.6802 31.0497 12.6802C31.0497 12.6802 30.5449 13.1639 30.4903 13.1933C30.4358 13.2228 28.8248 14.1773 28.7585 14.1219C28.6923 14.0665 27.6484 11.6822 27.6484 11.6822Z" fill="#A7A7A7"/>
<g opacity="0.3">
<path d="M26.0141 26.5791C24.5624 26.5505 23.3385 26.3193 22.3141 24.9607C21.2898 23.6021 22.7124 21.0301 22.7124 21.0301C22.7124 21.0301 19.5316 19.9239 19.6268 20.0307C19.7221 20.1375 18.5804 25.2329 21.0555 26.6631C23.0657 27.8252 26.6453 26.8012 27.916 26.3773C27.2532 26.5646 26.5531 26.5901 26.0141 26.5791Z" fill="black"/>
</g>
<path d="M3.96675 24.48C3.91436 24.5595 3.3407 25.267 5.06903 25.5088C6.79736 25.7506 17.2254 27.4754 17.3449 27.4754C17.4643 27.4754 19.8477 24.4795 19.0433 22.2104C18.2389 19.9413 14.7229 19.0008 12.8457 19.1239C10.9684 19.247 7.30305 19.3965 3.96675 24.48Z" fill="#A7A7A7"/>
<path d="M16.7383 28.4164L16.6465 30.6064C16.6465 30.6064 27.8681 30.5993 29.3985 30.0198C30.7667 29.5015 31.1767 28.8767 31.362 28.1073C31.6221 28.1078 31.879 28.0487 32.1136 27.9346C32.3482 27.8204 32.5545 27.654 32.7171 27.4478C33.583 26.3464 35.717 24.2822 39.3932 24.5389C39.5002 24.5471 39.6078 24.5471 39.7148 24.5389C40.1971 24.4976 41.5787 24.3675 41.5021 24.2378C41.409 24.0808 38.9944 20.7798 35.0013 21.2199C35.0013 21.2199 36.2396 20.654 35.7443 19.7738C35.249 18.8936 30.7294 13.0469 30.7294 13.0469C30.7294 13.0469 29.244 14.3659 30.3272 15.9074C31.4105 17.4488 32.7084 19.7738 32.7084 20.6857C32.7084 21.5975 32.1456 26.4598 29.7371 28.2919C28.6236 29.1396 16.7383 28.4164 16.7383 28.4164Z" fill="#A7A7A7"/>
<path opacity="0.3" d="M5.25586 23.6268C5.25586 23.6268 9.25457 19.2183 13.9763 19.5665C18.698 19.9147 5.82865 24.671 5.25586 23.6268Z" fill="white"/>
<path d="M36.899 21.6161C36.899 21.6161 36.453 20.3894 37.5865 19.8042C38.72 19.219 38.8875 19.2384 38.8875 19.2384L40.4115 22.1819C40.4115 22.1819 40.1418 22.6656 38.9897 22.7214C37.8376 22.7772 36.976 21.6477 36.976 21.6477" fill="#A7A7A7"/>
<path d="M26.3361 11.5244L28.2155 11.7082L28.6623 11.3125C28.6623 11.3125 29.3277 11.3604 29.4498 11.5024C29.5719 11.6445 29.6533 12.0459 29.6533 12.0459C29.6533 12.0459 29.7745 12.3844 29.4559 12.4992C29.4559 12.4992 29.5247 12.7432 29.1632 12.8839C29.1632 12.8839 29.0996 11.9206 28.7264 12.0094C28.3532 12.0982 28.4726 13.2242 28.2441 13.1965C27.8189 13.142 27.8332 12.8527 27.8332 12.8527L26.207 12.7388L26.3361 11.5244Z" fill="#F4F4F4"/>
<path d="M28.5815 13.2419C28.9425 13.2419 29.2352 12.9446 29.2352 12.578C29.2352 12.2113 28.9425 11.9141 28.5815 11.9141C28.2204 11.9141 27.9277 12.2113 27.9277 12.578C27.9277 12.9446 28.2204 13.2419 28.5815 13.2419Z" fill="#1A2E35"/>
<path opacity="0.3" d="M19.0434 22.2098C18.7044 21.254 17.8844 20.5351 16.9086 20.0312C16.9367 20.0633 18.1057 21.3986 18.2758 22.1122C18.449 22.8341 17.203 25.1459 16.2409 26.06C15.2789 26.9741 11.8002 26.5806 11.7383 26.5704C14.6035 27.0347 17.2848 27.4744 17.3454 27.4744C17.464 27.4744 19.8478 24.4789 19.0434 22.2098Z" fill="black"/>
<path opacity="0.3" d="M35 21.2188C35 21.2188 34.1462 21.6312 33.8397 22.0242C33.5332 22.4173 33.002 23.7064 33.002 23.7064C33.002 23.7064 33.8172 23.4426 34.0016 22.7281C34.1861 22.0137 34.5324 21.6505 34.5324 21.6505L35 21.2188Z" fill="black"/>
<path opacity="0.3" d="M36.8203 21.2167C36.8203 21.2167 38.6681 21.7958 39.8821 22.6237C39.8821 22.6241 38.6153 21.0149 36.8203 21.2167Z" fill="black"/>
<path opacity="0.3" d="M5.0918 24.6094C8.50646 25.21 13.9426 26.1715 17.3572 26.7725" stroke="black" stroke-linecap="round" stroke-linejoin="round"/>
<path d="M22.5765 20.9799C22.5085 20.9562 15.4874 18.6792 15.1328 18.5508" stroke="black" stroke-linecap="round" stroke-linejoin="round"/>
<path opacity="0.3" d="M32.7207 25.8847C34.1538 24.0051 36.7038 23.0831 38.9842 23.6204" stroke="black" stroke-linecap="round" stroke-linejoin="round"/>
<path opacity="0.5" d="M29.3516 10.6582C29.4113 10.7598 30.2253 11.6396 30.2253 11.6396L30.95 11.7785C30.95 11.7785 30.8855 11.3608 30.6963 11.101C30.5071 10.8412 29.4351 10.2656 29.4351 10.2656L29.3516 10.6582Z" fill="white"/>
<path opacity="0.3" d="M31.0508 14.7031C31.8704 16.6623 34.2113 19.5883 34.4087 19.7672" stroke="black" stroke-linecap="round" stroke-linejoin="round"/>
<path d="M24.6208 1.61328C24.6894 1.63183 24.7516 1.66903 24.8009 1.72086C24.8501 1.77269 24.8845 1.83719 24.9003 1.9074C24.9161 1.97761 24.9128 2.05087 24.8906 2.11929C24.8684 2.18771 24.8283 2.24868 24.7745 2.29565C24.881 2.30268 24.9404 2.4403 24.9044 2.54274C24.8685 2.64518 24.7771 2.71509 24.6841 2.76741C24.7086 2.78412 24.728 2.80747 24.7402 2.83482C24.7524 2.86217 24.7568 2.89242 24.7529 2.92217C24.7439 2.98154 24.7209 3.03782 24.6858 3.08617C24.5429 3.30496 24.3305 3.46743 24.084 3.5465C24.084 3.5465 24.1009 1.82564 24.1524 1.80366L24.6208 1.61328Z" fill="#1A2E35"/>
<path d="M22.3238 5.83518C22.3843 5.66679 22.4647 5.50647 22.5632 5.3577L22.2848 5.11588L21.3691 3.79688C21.3804 4.51178 21.231 5.75912 20.582 6.06952L22.1571 6.88774C21.925 6.6235 22.2285 6.12052 22.3238 5.83518Z" fill="#F4F4F4"/>
<path opacity="0.2" d="M22.306 5.9009C22.0333 5.66612 21.7527 5.29152 21.8527 4.93363C21.8884 4.80302 21.9391 4.67714 22.0038 4.55859L22.4827 5.49289C22.4099 5.62222 22.3506 5.75898 22.306 5.9009Z" fill="black"/>
<path d="M21.368 2.48655C21.2814 3.65563 21.22 4.14718 21.7049 4.85109C22.4339 5.91025 23.8384 5.83638 24.2593 4.73502C24.6398 3.744 24.7186 1.99852 23.686 1.32407C22.6712 0.659289 21.4555 1.31571 21.368 2.48655Z" fill="#F4F4F4"/>
<path d="M22.6647 3.10044C22.65 3.2231 22.6985 3.33434 22.7725 3.34841C22.8466 3.36248 22.9189 3.27498 22.9336 3.15232C22.9483 3.02965 22.8998 2.91841 22.8258 2.9039C22.7518 2.88939 22.6795 2.97777 22.6647 3.10044Z" fill="#1A2E35"/>
<path d="M23.848 3.30439C23.8342 3.42354 23.8831 3.5317 23.9572 3.54577C24.0312 3.55984 24.1026 3.47542 24.1165 3.35627C24.1303 3.23712 24.0818 3.12941 24.0078 3.1149C23.9338 3.10039 23.8623 3.18524 23.848 3.30439Z" fill="#1A2E35"/>
<path d="M22.6086 2.64555C22.6158 2.64775 22.6234 2.64834 22.6309 2.64727C22.6384 2.64621 22.6455 2.64352 22.6519 2.63939C22.7083 2.60018 22.7735 2.57583 22.8415 2.56854C22.9095 2.56125 22.9783 2.57124 23.0415 2.59762C23.0479 2.60096 23.055 2.60291 23.0622 2.60333C23.0694 2.60375 23.0766 2.60265 23.0834 2.60008C23.0901 2.59752 23.0963 2.59355 23.1015 2.58843C23.1066 2.58332 23.1107 2.57716 23.1134 2.57036C23.1188 2.55592 23.1188 2.53996 23.1134 2.52553C23.1079 2.51109 23.0975 2.49919 23.084 2.4921C23.0041 2.45725 22.9169 2.44329 22.8304 2.45151C22.7439 2.45973 22.6608 2.48986 22.5887 2.53915C22.5764 2.548 22.568 2.56138 22.5654 2.57642C22.5627 2.59146 22.5659 2.60696 22.5744 2.61961C22.5822 2.63226 22.5944 2.64151 22.6086 2.64555Z" fill="#1A2E35"/>
<path d="M24.3641 2.78628C24.3703 2.78529 24.3763 2.78292 24.3815 2.77935C24.3867 2.77578 24.3911 2.7711 24.3944 2.76562C24.4013 2.75269 24.4034 2.7377 24.4005 2.7233C24.3976 2.70891 24.3897 2.69602 24.3784 2.68692C24.1442 2.49478 23.9333 2.57436 23.9242 2.57788C23.918 2.58084 23.9124 2.58504 23.9078 2.59023C23.9032 2.59541 23.8996 2.60148 23.8974 2.60808C23.8951 2.61468 23.8942 2.62167 23.8946 2.62864C23.8951 2.63561 23.8969 2.64242 23.9 2.64867C23.9043 2.6622 23.9136 2.6735 23.926 2.68016C23.9383 2.68681 23.9528 2.68829 23.9662 2.68428C23.9744 2.68076 24.1394 2.62185 24.3256 2.77485C24.3308 2.77949 24.3369 2.78292 24.3436 2.78489C24.3502 2.78687 24.3572 2.78734 24.3641 2.78628Z" fill="#1A2E35"/>
<path d="M23.5965 3.19141C23.5965 3.19141 23.7026 3.65262 23.8563 3.95555C23.8624 3.96789 23.8657 3.98149 23.8658 3.99531C23.8659 4.00912 23.8629 4.02279 23.857 4.03524C23.8511 4.04769 23.8425 4.0586 23.8318 4.06712C23.8211 4.07564 23.8086 4.08154 23.7953 4.08437C23.6919 4.09722 23.587 4.08094 23.4922 4.03733L23.5965 3.19141Z" fill="#BCBCBC"/>
<path d="M22.7832 2.90084L23.0538 2.88281C23.0538 2.88281 22.8789 3.0556 22.7832 2.90084Z" fill="#1A2E35"/>
<path d="M23.9668 3.11134L24.2374 3.09375C24.2374 3.09375 24.2006 3.27753 23.9668 3.11134Z" fill="#1A2E35"/>
<path d="M21.5367 3.58789C21.5367 3.58789 21.948 3.59756 21.8259 3.0915C21.8259 3.0915 22.3142 2.91959 22.1419 2.32076C22.1419 2.32076 22.6182 2.4232 22.8186 1.93649C22.8186 1.93649 23.2022 2.32516 23.6287 2.002C23.6287 2.002 24.2586 2.54719 24.5132 2.06619C24.5132 2.06619 25.4336 1.84636 24.7266 1.27963C24.7266 1.27963 24.8916 0.0300888 23.6763 0.498775C23.6763 0.498775 23.1247 -0.391993 22.2909 0.383582C22.2909 0.383582 21.5981 0.0380027 21.3345 0.892279C21.3345 0.892279 20.5772 0.81138 20.4898 1.89604C20.4898 1.89604 19.865 2.23722 20.4235 2.86331C20.4235 2.86331 20.3097 3.16141 20.64 3.50259C20.64 3.50259 20.7123 3.93698 20.9981 4.03019C20.9981 4.03019 21.199 4.63518 21.3561 4.5811C21.5133 4.52702 21.3531 3.86092 21.5367 3.58789Z" fill="#1A2E35"/>
<path d="M20.9318 3.37683C21.0161 3.61094 21.1882 3.8016 21.4106 3.90707C21.6981 4.03458 21.9345 3.57117 21.883 3.24757C21.8576 3.10187 21.7819 2.97013 21.6695 2.87607C21.557 2.78201 21.4152 2.7318 21.2695 2.73448C20.9721 2.74459 20.8236 3.08094 20.9318 3.37683Z" fill="#F4F4F4"/>
<path opacity="0.2" d="M21.6555 3.44476C21.6668 3.33305 21.6339 3.22137 21.5641 3.1343C21.4942 3.04723 21.3932 2.9919 21.2832 2.98047" stroke="black" stroke-width="0.5" stroke-linecap="round" stroke-linejoin="round"/>
<path d="M23.3789 4.22202C23.2806 4.32933 23.19 4.44364 23.1078 4.56408L23.0386 4.53067C22.7286 4.37634 22.635 4.20047 22.6234 4.04703C22.6207 3.97444 22.6347 3.90222 22.6641 3.83599C22.6798 3.79801 22.7008 3.76248 22.7264 3.73047C22.8368 3.94151 23.129 4.09144 23.2801 4.17409C23.3105 4.195 23.3438 4.21116 23.3789 4.22202Z" fill="#1A2E35"/>
<path d="M23.2728 4.16569L23.1892 4.26417C22.9026 4.11733 22.713 3.97619 22.6641 3.8399C22.6796 3.80187 22.7004 3.76633 22.726 3.73438C22.8429 3.9186 23.1234 4.09007 23.2728 4.16569Z" fill="white"/>
<path d="M23.0382 4.53051C22.7283 4.37619 22.6347 4.20032 22.623 4.04688C22.7417 4.10586 22.8484 4.18683 22.9378 4.28561C22.996 4.35434 23.0312 4.44012 23.0382 4.53051Z" fill="#EAEAEA"/>
<path d="M20.1692 2.55892C20.1742 2.85931 20.2231 3.15729 20.3143 3.44309C20.4541 3.87485 20.7204 4.46356 21.1442 4.53215C22.2266 4.70802 22.1179 3.82868 22.1565 3.64094C22.195 3.45321 22.1565 1.93679 22.4816 1.86161C22.8068 1.78642 25.1659 2.1663 25.1659 2.1663C25.1659 2.1663 25.3737 0.261653 23.3791 0.0453358C21.1434 -0.196922 20.1268 0.516221 20.1692 2.55892Z" fill="#A7A7A7"/>
<path opacity="0.2" d="M22.0645 3.63985C22.1142 3.6438 24.5279 4.20834 24.7422 4.08963C24.9565 3.97092 25.2661 2.64312 25.06 1.88293C24.8539 1.12274 22.5169 1.28938 22.4307 1.32631C22.3446 1.36324 22.0645 3.63985 22.0645 3.63985Z" fill="#A7A7A7"/>
<path d="M20.1814 2.07422L22.2236 2.58028L22.1951 2.92718L20.168 2.45145C20.1676 2.33099 20.1715 2.20524 20.1814 2.07422Z" fill="white"/>
<path d="M20.1719 2.625L22.1847 3.13062L22.1699 3.48235L20.2126 3.0229C20.1907 2.89127 20.1771 2.75837 20.1719 2.625Z" fill="white"/>
<path opacity="0.2" d="M20.582 1.35968C20.582 1.35968 20.6734 0.430226 21.6579 0.25172C22.6424 0.0732149 23.2745 0.0732151 23.1169 0.359C22.9594 0.644784 21.8869 0.644784 21.6449 0.823289C21.4029 1.00179 20.844 1.72901 20.582 1.35968Z" fill="white"/>
<path opacity="0.3" d="M24.4267 1.45914C24.4094 1.60247 24.1574 1.68908 23.8638 1.65259C23.5703 1.6161 23.3469 1.47013 23.3642 1.3268C23.3815 1.18347 23.6331 1.09685 23.9271 1.13334C24.221 1.16984 24.4457 1.31581 24.4267 1.45914Z" fill="white"/>
<path d="M26.276 27.484L27.4021 27.109L27.1081 24.0625L25.7266 24.5756L26.276 27.484Z" fill="#F4F4F4"/>
<path opacity="0.2" d="M26.1032 26.5699L25.7266 24.5756L27.1081 24.0625L27.3233 26.2916L26.1032 26.5699Z" fill="black"/>
<path d="M27.571 26.7838L26.1795 27.1764C26.1564 27.1833 26.1363 27.198 26.1226 27.2181C26.1088 27.2381 26.1022 27.2624 26.1037 27.2867L26.1561 28.4259C26.1569 28.4531 26.1637 28.4797 26.1761 28.5037C26.1884 28.5278 26.206 28.5487 26.2275 28.5649C26.2489 28.581 26.2737 28.5921 26.3 28.5971C26.3263 28.6021 26.3533 28.601 26.3791 28.5939C26.8246 28.4593 27.1441 28.3393 27.7083 28.1806C28.0546 28.0825 29.1114 27.8258 29.5907 27.6904C30.0592 27.5585 30.0024 27.0353 29.7946 27.0449C28.8621 27.0889 28.1265 26.9948 27.7758 26.8062C27.7128 26.7724 27.6396 26.7644 27.571 26.7838Z" fill="#1A2E35"/>
<path opacity="0.3" d="M27.571 26.7838L26.1795 27.1764C26.1564 27.1833 26.1363 27.198 26.1226 27.2181C26.1088 27.2381 26.1022 27.2624 26.1037 27.2867L26.1561 28.4259C26.1569 28.4531 26.1637 28.4797 26.1761 28.5037C26.1884 28.5278 26.206 28.5487 26.2275 28.5649C26.2489 28.581 26.2737 28.5921 26.3 28.5971C26.3263 28.6021 26.3533 28.601 26.3791 28.5939C26.8246 28.4593 27.1441 28.3393 27.7083 28.1806C28.0546 28.0825 29.1114 27.8258 29.5907 27.6904C30.0592 27.5585 30.0024 27.0353 29.7946 27.0449C28.8621 27.0889 28.1265 26.9948 27.7758 26.8062C27.7128 26.7724 27.6396 26.7644 27.571 26.7838Z" fill="black"/>
<path d="M16.1277 13.5312C16.1277 13.5312 14.4677 16.6687 17.4698 17.8492C19.7324 18.7387 24.1701 19.8321 24.1701 19.8321L25.5023 27.0146L28.0736 26.443C28.0736 26.443 27.3229 21.6352 26.8583 18.4806C26.7098 17.4694 26.3033 17.3722 26.095 17.2289C25.4265 16.7676 20.4303 14.8986 20.4303 14.8986L20.5455 14.4717L16.1277 13.5312Z" fill="#A7A7A7"/>
<path opacity="0.3" d="M16.1277 13.5312C16.1277 13.5312 14.4677 16.6687 17.4698 17.8492C19.7324 18.7387 24.1701 19.8321 24.1701 19.8321L25.5023 27.0146L28.0736 26.443C28.0736 26.443 27.3229 21.6352 26.8583 18.4806C26.7098 17.4694 26.3033 17.3722 26.095 17.2289C25.4265 16.7676 20.4303 14.8986 20.4303 14.8986L20.5455 14.4717L16.1277 13.5312Z" fill="black"/>
<path opacity="0.3" d="M24.1719 19.8309L24.8239 19.3086L24.2424 20.2121L24.1719 19.8309Z" fill="black"/>
<path d="M21.0854 5.26953C21.0066 5.28316 19.7229 5.43441 18.8666 6.75781C18.0102 8.08121 16.0693 12.4295 16.0857 12.6234C16.1533 13.4148 15.1458 13.8624 17.5171 14.343C19.8883 14.8235 20.5477 14.6793 20.5477 14.6793C20.5477 14.6793 21.0352 14.4362 21.1703 13.6791C21.1863 13.5885 22.4258 10.7487 22.7012 9.4455C22.9765 8.14233 22.3063 5.89606 22.3063 5.89606L22.1583 6.22405L21.0854 5.26953Z" fill="#1A2E35"/>
<path opacity="0.3" d="M21.8711 11.8653C21.8711 11.8653 19.5332 8.0525 19.4033 8.21605C19.3357 8.29915 19.6652 9.5865 20.1921 10.7982C20.2125 10.8444 20.5666 10.6953 20.5818 10.7437C20.9576 11.9572 21.4044 13.015 21.4044 13.015C21.4866 12.8145 21.8711 11.8653 21.8711 11.8653Z" fill="black"/>
<path d="M20.918 5.3437L21.2336 5.04297L22.4818 5.82778L22.2753 6.49607L20.918 5.3437Z" fill="#1A2E35"/>
<path d="M21.1599 6.46949C21.0235 6.28439 19.8658 6.3244 19.5645 7.15361C19.2631 7.98283 22.2189 12.7858 22.9562 13.0623C23.9615 13.4396 27.8329 12.85 27.8619 12.8104L28.2329 11.6672L23.9468 11.3129C23.7965 11.3366 21.7149 7.22264 21.1599 6.46949Z" fill="#F4F4F4"/>
<path d="M20.3056 10.5814L22.8301 9.3341C22.8301 9.3341 21.701 5.9104 20.7186 6.03043C19.7363 6.15046 19.1864 7.00781 19.2847 7.60664C19.383 8.20547 20.3056 10.5814 20.3056 10.5814Z" fill="#1A2E35"/>
<path opacity="0.3" d="M19.666 6.46377C19.666 6.46377 20.7969 5.64027 21.4411 6.51785C22.0853 7.39543 22.7677 9.30315 22.7677 9.30315" stroke="black" stroke-width="0.75" stroke-linecap="round" stroke-linejoin="round"/>
<path opacity="0.3" d="M20.168 10.101L22.6643 9.03125" stroke="black" stroke-width="0.75" stroke-linecap="round" stroke-linejoin="round"/>
<path d="M11.5576 14.2249L11.4703 13.9523L11.561 13.6797H11.568C11.6378 13.6797 11.6972 13.6549 11.746 13.6053C11.7949 13.5558 11.8193 13.4944 11.8193 13.4212V12.7768L12.3604 12.6422V13.4212C12.3604 13.5652 12.3243 13.6997 12.2522 13.8248C12.1824 13.9476 12.0858 14.0456 11.9625 14.1187C11.8414 14.1895 11.71 14.2249 11.568 14.2249H11.5576ZM11.4668 11.8633H12.3848V12.2846H11.4668V11.8633Z" fill="white"/>
<path d="M10.8125 13.9523L10.9102 13.6797H11.5665L11.6642 13.9594L11.5665 14.225H10.9102L10.8125 13.9523Z" fill="white"/>
<path d="M10.1543 13.9523L10.252 13.6797H10.9083L11.006 13.9594L10.9083 14.225H10.252L10.1543 13.9523Z" fill="white"/>
<path d="M9.49805 13.9523L9.59578 13.6797H10.252L10.3497 13.9594L10.252 14.225H9.59578L9.49805 13.9523Z" fill="white"/>
<path d="M8.54193 14.2242L8.45117 13.9516L8.54542 13.6789H8.54891C8.61872 13.6789 8.67806 13.6542 8.72692 13.6046C8.77812 13.555 8.80372 13.4936 8.80372 13.4205V12.7761L9.34126 12.6415V13.4205C9.34126 13.4936 9.36569 13.555 9.41456 13.6046C9.46343 13.6542 9.52393 13.6789 9.59607 13.6789L9.69031 13.9516L9.59607 14.2242C9.496 14.2242 9.4006 14.2053 9.30984 14.1676C9.21909 14.1298 9.13997 14.0779 9.07249 14.0118C9.00268 14.0779 8.92239 14.1298 8.83164 14.1676C8.74321 14.2053 8.64897 14.2242 8.54891 14.2242H8.54193ZM8.89447 11.8555H9.33079V12.2804H8.89447V11.8555Z" fill="white"/>
<path d="M7.79297 13.9523L7.8907 13.6797H8.54692L8.64466 13.9594L8.54692 14.225H7.8907L7.79297 13.9523Z" fill="white"/>
<path d="M7.13477 13.9523L7.2325 13.6797H7.88872L7.98645 13.9594L7.88872 14.225H7.2325L7.13477 13.9523Z" fill="white"/>
<path d="M6.10938 14.673L6.44098 14.4464V12.7787L6.98201 12.6406V13.4196C6.98201 13.4904 7.00644 13.5518 7.05531 13.6037C7.1065 13.6533 7.16584 13.6781 7.23333 13.6781L7.32757 13.9507L7.23333 14.2233C7.15188 14.2233 7.06811 14.1891 6.98201 14.1206V14.7367L6.40607 15.1262L6.10938 14.673Z" fill="white"/>
<path d="M4.59515 14.6783L5.27232 14.225H5.1327C5.02565 14.225 4.91512 14.1908 4.8011 14.1224C4.6894 14.0515 4.59632 13.9548 4.52185 13.832C4.44739 13.7093 4.41016 13.5735 4.41016 13.4248C4.41016 13.2808 4.44506 13.1475 4.51487 13.0247C4.58701 12.902 4.68358 12.804 4.80459 12.7309C4.92792 12.6577 5.06056 12.6211 5.20251 12.6211H5.99486V14.3879L4.89534 15.1315L4.59515 14.6783ZM4.9477 13.4213C4.9477 13.4921 4.97213 13.5535 5.021 13.6054C5.06987 13.655 5.13037 13.6798 5.20251 13.6798H5.45731V13.1628H5.20251C5.13037 13.1628 5.06987 13.1888 5.021 13.2407C4.97213 13.2903 4.9477 13.3505 4.9477 13.4213Z" fill="white"/>
</g>
<defs>
<clipPath id="clip0_917_6805">
<rect width="43" height="34" fill="white"/>
</clipPath>
</defs>
</svg>
