<svg width="20" height="20" viewBox="0 0 20 20" fill="none" xmlns="http://www.w3.org/2000/svg">
<path d="M10.0153 17.1081C8.07359 17.1081 6.13192 16.7998 4.29026 16.1831C3.59026 15.9414 3.05692 15.4498 2.82359 14.8081C2.58192 14.1664 2.66526 13.4581 3.04859 12.8248L4.00692 11.2331C4.20692 10.8998 4.39026 10.2331 4.39026 9.84144V7.43311C4.39026 4.33311 6.91526 1.80811 10.0153 1.80811C13.1153 1.80811 15.6403 4.33311 15.6403 7.43311V9.84144C15.6403 10.2248 15.8236 10.8998 16.0236 11.2414L16.9736 12.8248C17.3319 13.4248 17.3986 14.1498 17.1569 14.8081C16.9153 15.4664 16.3903 15.9664 15.7319 16.1831C13.8986 16.7998 11.9569 17.1081 10.0153 17.1081ZM10.0153 3.05811C7.60692 3.05811 5.64026 5.01644 5.64026 7.43311V9.84144C5.64026 10.4498 5.39026 11.3498 5.08192 11.8748L4.12359 13.4664C3.94026 13.7748 3.89026 14.0998 3.99859 14.3748C4.09859 14.6581 4.34859 14.8748 4.69026 14.9914C8.17359 16.1581 11.8653 16.1581 15.3486 14.9914C15.6486 14.8914 15.8819 14.6664 15.9903 14.3664C16.0986 14.0664 16.0736 13.7414 15.9069 13.4664L14.9486 11.8748C14.6319 11.3331 14.3903 10.4414 14.3903 9.83311V7.43311C14.3903 5.01644 12.4319 3.05811 10.0153 3.05811Z" fill="#003D95"/>
<path d="M11.5678 3.2834C11.5095 3.2834 11.4512 3.27507 11.3928 3.2584C11.1512 3.19173 10.9178 3.14173 10.6928 3.1084C9.98449 3.01673 9.30115 3.06673 8.65949 3.2584C8.42615 3.3334 8.17615 3.2584 8.01782 3.0834C7.85949 2.9084 7.80949 2.6584 7.90115 2.4334C8.24282 1.5584 9.07615 0.983398 10.0262 0.983398C10.9762 0.983398 11.8095 1.55007 12.1512 2.4334C12.2345 2.6584 12.1928 2.9084 12.0345 3.0834C11.9095 3.21673 11.7345 3.2834 11.5678 3.2834Z" fill="#003D95"/>
<path d="M10.0156 19.0083C9.19063 19.0083 8.39062 18.675 7.80729 18.0916C7.22396 17.5083 6.89062 16.7083 6.89062 15.8833H8.14062C8.14062 16.375 8.34062 16.8583 8.69062 17.2083C9.04062 17.5583 9.52396 17.7583 10.0156 17.7583C11.049 17.7583 11.8906 16.9166 11.8906 15.8833H13.1406C13.1406 17.6083 11.7406 19.0083 10.0156 19.0083Z" fill="#003D95"/>
</svg>
