<svg width="49" height="49" viewBox="0 0 49 49" fill="none" xmlns="http://www.w3.org/2000/svg">
<path d="M24.5008 45.9469C22.3208 45.9469 20.1608 45.3069 18.4608 44.0469L9.86078 37.6269C7.58078 35.9269 5.80078 32.3669 5.80078 29.5469V14.6669C5.80078 11.5869 8.06078 8.30688 10.9608 7.22688L20.9408 3.48688C22.9208 2.74688 26.0408 2.74688 28.0208 3.48688L38.0008 7.22688C40.9008 8.30688 43.1608 11.5869 43.1608 14.6669V29.5269C43.1608 32.3669 41.3808 35.9069 39.1008 37.6069L30.5008 44.0269C28.8408 45.3069 26.6808 45.9469 24.5008 45.9469ZM22.0008 6.30689L12.0208 10.0469C10.3208 10.6869 8.82078 12.8469 8.82078 14.6869V29.5469C8.82078 31.4469 10.1608 34.1069 11.6608 35.2269L20.2608 41.6469C22.5608 43.3669 26.4408 43.3669 28.7608 41.6469L37.3608 35.2269C38.8808 34.0869 40.2008 31.4469 40.2008 29.5469V14.6669C40.2008 12.8469 38.7008 10.6869 37.0008 10.0269L27.0208 6.28689C25.6608 5.80689 23.3408 5.80689 22.0008 6.30689Z" fill="#FEFEFE"/>
<path d="M21.8205 28.8869C21.4405 28.8869 21.0605 28.7469 20.7605 28.4469L17.5405 25.2269C16.9605 24.6469 16.9605 23.6869 17.5405 23.1069C18.1205 22.5269 19.0805 22.5269 19.6605 23.1069L21.8205 25.2669L29.3605 17.7269C29.9405 17.1469 30.9005 17.1469 31.4805 17.7269C32.0605 18.3069 32.0605 19.2669 31.4805 19.8469L22.8805 28.4469C22.5805 28.7469 22.2005 28.8869 21.8205 28.8869Z" fill="#FEFEFE"/>
</svg>
