<svg width="49" height="49" viewBox="0 0 49 49" fill="none" xmlns="http://www.w3.org/2000/svg">
<path d="M36.88 35.9269H15.58C13.6 35.9269 11.7 35.0869 10.36 33.6269C9.01999 32.1669 8.34 30.2069 8.5 28.2269L10.16 8.30688C10.22 7.68688 9.99999 7.08689 9.57999 6.62689C9.15999 6.16689 8.57999 5.92688 7.95999 5.92688H4.5C3.68 5.92688 3 5.24688 3 4.42688C3 3.60688 3.68 2.92688 4.5 2.92688H7.98001C9.44001 2.92688 10.82 3.54687 11.8 4.60687C12.34 5.20687 12.74 5.90689 12.96 6.68689H37.94C39.96 6.68689 41.82 7.48688 43.18 8.92688C44.52 10.3869 45.2 12.2869 45.04 14.3069L43.96 29.3069C43.74 32.9669 40.54 35.9269 36.88 35.9269ZM13.06 9.66687L11.5 28.4669C11.4 29.6269 11.78 30.7269 12.56 31.5869C13.34 32.4469 14.42 32.9069 15.58 32.9069H36.88C38.96 32.9069 40.84 31.1469 41 29.0669L42.08 14.0669C42.16 12.8869 41.78 11.7669 41 10.9469C40.22 10.1069 39.14 9.64685 37.96 9.64685H13.06V9.66687Z" fill="#FEFEFE"/>
<path d="M33 45.9269C30.8 45.9269 29 44.1269 29 41.9269C29 39.7269 30.8 37.9269 33 37.9269C35.2 37.9269 37 39.7269 37 41.9269C37 44.1269 35.2 45.9269 33 45.9269ZM33 40.9269C32.44 40.9269 32 41.3669 32 41.9269C32 42.4869 32.44 42.9269 33 42.9269C33.56 42.9269 34 42.4869 34 41.9269C34 41.3669 33.56 40.9269 33 40.9269Z" fill="#FEFEFE"/>
<path d="M17 45.9269C14.8 45.9269 13 44.1269 13 41.9269C13 39.7269 14.8 37.9269 17 37.9269C19.2 37.9269 21 39.7269 21 41.9269C21 44.1269 19.2 45.9269 17 45.9269ZM17 40.9269C16.44 40.9269 16 41.3669 16 41.9269C16 42.4869 16.44 42.9269 17 42.9269C17.56 42.9269 18 42.4869 18 41.9269C18 41.3669 17.56 40.9269 17 40.9269Z" fill="#FEFEFE"/>
<path d="M42.5 17.9269H18.5C17.68 17.9269 17 17.2469 17 16.4269C17 15.6069 17.68 14.9269 18.5 14.9269H42.5C43.32 14.9269 44 15.6069 44 16.4269C44 17.2469 43.32 17.9269 42.5 17.9269Z" fill="#FEFEFE"/>
</svg>
