<svg width="90" height="16" viewBox="0 0 90 16" fill="none" xmlns="http://www.w3.org/2000/svg">
<g opacity="0.9">
<path d="M22.5624 4.33658H19.2504L17.3064 15.4966H12.7464L14.6904 4.33658H11.4024L12.0984 0.496582H23.2584L22.5624 4.33658ZM12.0024 15.4246L1.82644 14.3446H12.1944L12.0024 15.4246ZM12.8184 10.7926L2.64244 9.71258H13.0104L12.8184 10.7926ZM13.2264 8.48858L3.05044 7.40858H13.4184L13.2264 8.48858ZM13.6344 6.18458L3.45844 5.10458H13.8264L13.6344 6.18458ZM12.4104 13.0966L2.23444 12.0166H12.6024L12.4104 13.0966ZM10.7544 3.88058L0.578437 2.80058H10.9224L10.7544 3.88058ZM11.1384 1.57658L0.986437 0.496582H11.3304L11.1384 1.57658ZM28.875 15.6724C27.8203 15.6724 26.918 15.4653 26.168 15.0513C25.418 14.6372 24.8438 14.0356 24.4453 13.2466C24.0547 12.4497 23.8594 11.4927 23.8594 10.3755V8.39502C23.8594 7.29346 24.0547 6.35205 24.4453 5.5708C24.8438 4.78174 25.418 4.18408 26.168 3.77783C26.918 3.36377 27.8203 3.15674 28.875 3.15674C29.9297 3.15674 30.832 3.36377 31.582 3.77783C32.332 4.18408 32.9023 4.78174 33.293 5.5708C33.6914 6.35205 33.8906 7.29346 33.8906 8.39502V10.4106C33.8906 11.52 33.6914 12.4692 33.293 13.2583C32.9023 14.0396 32.332 14.6372 31.582 15.0513C30.832 15.4653 29.9297 15.6724 28.875 15.6724ZM28.875 13.3989C29.7109 13.3989 30.3555 13.1372 30.8086 12.6138C31.2695 12.0903 31.5 11.356 31.5 10.4106V8.39502C31.5 7.44971 31.2695 6.71924 30.8086 6.20361C30.3555 5.68799 29.7109 5.43018 28.875 5.43018C28.0391 5.43018 27.3906 5.68799 26.9297 6.20361C26.4766 6.71924 26.25 7.44971 26.25 8.39502V10.4106C26.25 11.356 26.4766 12.0903 26.9297 12.6138C27.3906 13.1372 28.0391 13.3989 28.875 13.3989ZM37.2891 3.33252H39.6797V15.4966H37.2891V3.33252ZM44.6719 8.12549C44.6719 7.26611 44.4492 6.60205 44.0039 6.1333C43.5586 5.66455 42.9336 5.43018 42.1289 5.43018C41.3477 5.43018 40.7422 5.63721 40.3125 6.05127C39.8906 6.46533 39.6797 7.04736 39.6797 7.79736L39.4336 5.45361C39.8086 4.71924 40.2969 4.15283 40.8984 3.75439C41.5078 3.35596 42.1797 3.15674 42.9141 3.15674C44.2344 3.15674 45.2539 3.59033 45.9727 4.45752C46.6992 5.31689 47.0625 6.53564 47.0625 8.11377V15.4966H44.6719V8.12549ZM50.6953 3.33252H53.0859V15.4966H50.6953V3.33252ZM57.3867 6.21533C57.1758 5.95752 56.9102 5.76221 56.5898 5.62939C56.2695 5.49658 55.8984 5.43018 55.4766 5.43018C54.7188 5.43018 54.1289 5.64111 53.707 6.06299C53.293 6.47705 53.0859 7.05518 53.0859 7.79736L52.8398 5.45361C53.2148 4.72705 53.6992 4.16455 54.293 3.76611C54.8867 3.35986 55.543 3.15674 56.2617 3.15674C56.8164 3.15674 57.3164 3.23877 57.7617 3.40283C58.2148 3.55908 58.6094 3.79346 58.9453 4.10596L57.3867 6.21533ZM65.3672 15.6724C64.3125 15.6724 63.4102 15.4653 62.6602 15.0513C61.9102 14.6372 61.3359 14.0356 60.9375 13.2466C60.5469 12.4497 60.3516 11.4927 60.3516 10.3755V8.39502C60.3516 7.29346 60.5469 6.35205 60.9375 5.5708C61.3359 4.78174 61.9102 4.18408 62.6602 3.77783C63.4102 3.36377 64.3125 3.15674 65.3672 3.15674C66.4219 3.15674 67.3242 3.36377 68.0742 3.77783C68.8242 4.18408 69.3945 4.78174 69.7852 5.5708C70.1836 6.35205 70.3828 7.29346 70.3828 8.39502V10.4106C70.3828 11.52 70.1836 12.4692 69.7852 13.2583C69.3945 14.0396 68.8242 14.6372 68.0742 15.0513C67.3242 15.4653 66.4219 15.6724 65.3672 15.6724ZM65.3672 13.3989C66.2031 13.3989 66.8477 13.1372 67.3008 12.6138C67.7617 12.0903 67.9922 11.356 67.9922 10.4106V8.39502C67.9922 7.44971 67.7617 6.71924 67.3008 6.20361C66.8477 5.68799 66.2031 5.43018 65.3672 5.43018C64.5312 5.43018 63.8828 5.68799 63.4219 6.20361C62.9688 6.71924 62.7422 7.44971 62.7422 8.39502V10.4106C62.7422 11.356 62.9688 12.0903 63.4219 12.6138C63.8828 13.1372 64.5312 13.3989 65.3672 13.3989ZM72.2578 3.33252H74.7539L76.9102 12.0161L79.9453 3.33252H81.6094L84.6445 12.0161L86.8008 3.33252H89.2969L85.5469 15.4966H83.7422L80.7773 7.09424L77.8125 15.4966H76.0078L72.2578 3.33252Z" fill="#F1F5F8"/>
</g>
</svg>
