<svg width="63" height="81" viewBox="0 0 63 81" fill="none" xmlns="http://www.w3.org/2000/svg">
<path d="M60.2435 1.92985C60.1925 1.37439 60.5929 0.887918 61.1377 0.843284C61.6826 0.798651 62.1657 1.21276 62.2168 1.76822L60.2435 1.92985ZM9.33723 80.5566C9.00903 80.9981 8.38795 81.0803 7.95001 80.7402L0.813336 75.1989C0.375394 74.8588 0.286429 74.2253 0.614624 73.7838C0.942824 73.3423 1.5639 73.2601 2.00184 73.6002L8.34556 78.5258L13.0996 72.1309C13.4278 71.6895 14.0489 71.6072 14.4868 71.9473C14.9247 72.2873 15.0137 72.9209 14.6855 73.3623L9.33723 80.5566ZM62.2168 1.76822C62.3146 2.83263 62.3818 3.86092 62.4196 4.85466L60.4392 4.90611C60.4029 3.95108 60.3382 2.95957 60.2435 1.92985L62.2168 1.76822ZM62.2554 10.9074C62.0323 13.1143 61.627 15.1125 61.0585 16.928L59.1696 16.2921C59.6933 14.6194 60.0734 12.7574 60.284 10.6745L62.2554 10.9074ZM58.4758 22.511C57.3321 24.2895 55.9806 25.813 54.473 27.1398L53.1657 25.6057C54.5494 24.3879 55.7775 23.0009 56.8135 21.39L58.4758 22.511ZM49.5189 30.5979C47.8081 31.5576 45.9984 32.39 44.1372 33.1486L43.3799 31.2738C45.1911 30.5355 46.9239 29.7368 48.545 28.8274L49.5189 30.5979ZM38.6149 35.1973C36.7673 35.838 34.9406 36.4481 33.0979 37.0971L32.4281 35.189C34.2665 34.5415 36.1439 33.9138 37.9538 33.2862L38.6149 35.1973ZM27.6965 39.1546C25.9146 39.9057 24.191 40.7269 22.5566 41.6632L21.5676 39.9014C23.2866 38.9165 25.0839 38.0616 26.9179 37.2885L27.6965 39.1546ZM17.9141 44.8956C16.5087 46.0959 15.2219 47.453 14.0844 49.0109L12.4884 47.7931C13.7235 46.1015 15.117 44.6336 16.6288 43.3424L17.9141 44.8956ZM11.3095 53.9442C10.621 55.5766 10.0511 57.3822 9.6213 59.3881L7.68473 58.9331C8.13942 56.811 8.74613 54.8835 9.48694 53.1272L11.3095 53.9442ZM8.82883 65.1403C8.7016 66.9448 8.666 68.8783 8.73153 70.9523L6.75071 70.9906C6.68317 68.8529 6.71951 66.8494 6.85207 64.9694L8.82883 65.1403ZM9.15091 76.8081C9.25634 77.7827 9.38087 78.7834 9.52518 79.811L7.56336 80.0707C7.41613 79.0223 7.28888 77.9999 7.18101 77.0028L9.15091 76.8081Z" fill="#034CB6"/>
</svg>
