<svg width="34" height="35" viewBox="0 0 34 35" fill="none" xmlns="http://www.w3.org/2000/svg">
<g filter="url(#filter0_d_146_9273)">
<path d="M17 16.7999C16.3 16.7999 15.6 16.5299 15.07 15.9999L8.55 9.47989C8.26 9.18989 8.26 8.70989 8.55 8.41989C8.84 8.12989 9.32 8.12989 9.61 8.41989L16.13 14.9399C16.61 15.4199 17.39 15.4199 17.87 14.9399L24.39 8.41989C24.68 8.12989 25.16 8.12989 25.45 8.41989C25.74 8.70989 25.74 9.18989 25.45 9.47989L18.93 15.9999C18.4 16.5299 17.7 16.7999 17 16.7999Z" fill="white"/>
</g>
<g filter="url(#filter1_d_146_9273)">
<path d="M17 22.7999C16.3 22.7999 15.6 22.5299 15.07 21.9999L8.55 15.4799C8.26 15.1899 8.26 14.7099 8.55 14.4199C8.84 14.1299 9.32 14.1299 9.61 14.4199L16.13 20.9399C16.61 21.4199 17.39 21.4199 17.87 20.9399L24.39 14.4199C24.68 14.1299 25.16 14.1299 25.45 14.4199C25.74 14.7099 25.74 15.1899 25.45 15.4799L18.93 21.9999C18.4 22.5299 17.7 22.7999 17 22.7999Z" fill="white"/>
</g>
<defs>
<filter id="filter0_d_146_9273" x="0.532496" y="4.40239" width="32.935" height="24.1974" filterUnits="userSpaceOnUse" color-interpolation-filters="sRGB">
<feFlood flood-opacity="0" result="BackgroundImageFix"/>
<feColorMatrix in="SourceAlpha" type="matrix" values="0 0 0 0 0 0 0 0 0 0 0 0 0 0 0 0 0 0 127 0" result="hardAlpha"/>
<feOffset dy="4"/>
<feGaussianBlur stdDeviation="3.9"/>
<feComposite in2="hardAlpha" operator="out"/>
<feColorMatrix type="matrix" values="0 0 0 0 1 0 0 0 0 1 0 0 0 0 1 0 0 0 0.78 0"/>
<feBlend mode="normal" in2="BackgroundImageFix" result="effect1_dropShadow_146_9273"/>
<feBlend mode="normal" in="SourceGraphic" in2="effect1_dropShadow_146_9273" result="shape"/>
</filter>
<filter id="filter1_d_146_9273" x="0.532496" y="10.4024" width="32.935" height="24.1974" filterUnits="userSpaceOnUse" color-interpolation-filters="sRGB">
<feFlood flood-opacity="0" result="BackgroundImageFix"/>
<feColorMatrix in="SourceAlpha" type="matrix" values="0 0 0 0 0 0 0 0 0 0 0 0 0 0 0 0 0 0 127 0" result="hardAlpha"/>
<feOffset dy="4"/>
<feGaussianBlur stdDeviation="3.9"/>
<feComposite in2="hardAlpha" operator="out"/>
<feColorMatrix type="matrix" values="0 0 0 0 1 0 0 0 0 1 0 0 0 0 1 0 0 0 0.78 0"/>
<feBlend mode="normal" in2="BackgroundImageFix" result="effect1_dropShadow_146_9273"/>
<feBlend mode="normal" in="SourceGraphic" in2="effect1_dropShadow_146_9273" result="shape"/>
</filter>
</defs>
</svg>
