<svg width="49" height="49" viewBox="0 0 49 49" fill="none" xmlns="http://www.w3.org/2000/svg">
<path d="M35.4 45.9269C33.14 45.9269 30.76 45.3869 28.3 44.3469C25.9 43.3269 23.48 41.9269 21.12 40.2269C18.78 38.5069 16.52 36.5869 14.38 34.4869C12.26 32.3469 10.34 30.0869 8.64 27.7669C6.92 25.3669 5.54 22.9669 4.56 20.6469C3.52 18.1669 3 15.7669 3 13.5069C3 11.9469 3.28 10.4669 3.82 9.08688C4.38 7.66688 5.28 6.34688 6.5 5.20688C8.04 3.68688 9.8 2.92688 11.68 2.92688C12.46 2.92688 13.26 3.10688 13.94 3.42688C14.72 3.78688 15.38 4.32688 15.86 5.04688L20.5 11.5869C20.92 12.1669 21.24 12.7269 21.46 13.2869C21.72 13.8869 21.86 14.4869 21.86 15.0669C21.86 15.8269 21.64 16.5669 21.22 17.2669C20.92 17.8069 20.46 18.3869 19.88 18.9669L18.52 20.3869C18.54 20.4469 18.56 20.4869 18.58 20.5269C18.82 20.9469 19.3 21.6669 20.22 22.7469C21.2 23.8669 22.12 24.8869 23.04 25.8269C24.22 26.9869 25.2 27.9069 26.12 28.6669C27.26 29.6269 28 30.1069 28.44 30.3269L28.4 30.4269L29.86 28.9869C30.48 28.3669 31.08 27.9069 31.66 27.6069C32.76 26.9269 34.16 26.8069 35.56 27.3869C36.08 27.6069 36.64 27.9069 37.24 28.3269L43.88 33.0469C44.62 33.5469 45.16 34.1869 45.48 34.9469C45.78 35.7069 45.92 36.4069 45.92 37.1069C45.92 38.0669 45.7 39.0269 45.28 39.9269C44.86 40.8269 44.34 41.6069 43.68 42.3269C42.54 43.5869 41.3 44.4869 39.86 45.0669C38.48 45.6269 36.98 45.9269 35.4 45.9269ZM11.68 5.92688C10.58 5.92688 9.56 6.40688 8.58 7.36688C7.66 8.22688 7.02 9.16688 6.62 10.1869C6.2 11.2269 6 12.3269 6 13.5069C6 15.3669 6.44 17.3869 7.32 19.4669C8.22 21.5869 9.48 23.7869 11.08 25.9869C12.68 28.1869 14.5 30.3269 16.5 32.3469C18.5 34.3269 20.66 36.1669 22.88 37.7869C25.04 39.3669 27.26 40.6469 29.46 41.5669C32.88 43.0269 36.08 43.3669 38.72 42.2669C39.74 41.8469 40.64 41.2069 41.46 40.2869C41.92 39.7869 42.28 39.2469 42.58 38.6069C42.82 38.1069 42.94 37.5869 42.94 37.0669C42.94 36.7469 42.88 36.4269 42.72 36.0669C42.66 35.9469 42.54 35.7269 42.16 35.4669L35.52 30.7469C35.12 30.4669 34.76 30.2669 34.42 30.1269C33.98 29.9469 33.8 29.7669 33.12 30.1869C32.72 30.3869 32.36 30.6869 31.96 31.0869L30.44 32.5869C29.66 33.3469 28.46 33.5269 27.54 33.1869L27 32.9469C26.18 32.5069 25.22 31.8269 24.16 30.9269C23.2 30.1069 22.16 29.1469 20.9 27.9069C19.92 26.9069 18.94 25.8469 17.92 24.6669C16.98 23.5669 16.3 22.6269 15.88 21.8469L15.64 21.2469C15.52 20.7869 15.48 20.5269 15.48 20.2469C15.48 19.5269 15.74 18.8869 16.24 18.3869L17.74 16.8269C18.14 16.4269 18.44 16.0469 18.64 15.7069C18.8 15.4469 18.86 15.2269 18.86 15.0269C18.86 14.8669 18.8 14.6269 18.7 14.3869C18.56 14.0669 18.34 13.7069 18.06 13.3269L13.42 6.76688C13.22 6.48688 12.98 6.28688 12.68 6.14688C12.36 6.00688 12.02 5.92688 11.68 5.92688ZM28.4 30.4469L28.08 31.8069L28.62 30.4069C28.52 30.3869 28.44 30.4069 28.4 30.4469Z" fill="#FEFEFE"/>
<path d="M37.5 19.9269C36.68 19.9269 36 19.2469 36 18.4269C36 17.7069 35.28 16.2069 34.08 14.9269C32.9 13.6669 31.6 12.9269 30.5 12.9269C29.68 12.9269 29 12.2469 29 11.4269C29 10.6069 29.68 9.92688 30.5 9.92688C32.44 9.92688 34.48 10.9669 36.26 12.8669C37.92 14.6469 39 16.8269 39 18.4269C39 19.2469 38.32 19.9269 37.5 19.9269Z" fill="#FEFEFE"/>
<path d="M44.5 19.9269C43.68 19.9269 43 19.2469 43 18.4269C43 11.5269 37.4 5.92688 30.5 5.92688C29.68 5.92688 29 5.24688 29 4.42688C29 3.60688 29.68 2.92688 30.5 2.92688C39.04 2.92688 46 9.88688 46 18.4269C46 19.2469 45.32 19.9269 44.5 19.9269Z" fill="#FEFEFE"/>
</svg>
