<?xml version="1.0" encoding="iso-8859-1"?>
<!-- Uploaded to: SVG Repo, www.svgrepo.com, Generator: SVG Repo Mixer Tools -->
<svg fill="#000000" height="800px" width="800px" version="1.1" id="Layer_1" xmlns="http://www.w3.org/2000/svg" xmlns:xlink="http://www.w3.org/1999/xlink" 
	 viewBox="0 0 512 512" xml:space="preserve">
<g>
	<g>
		<path d="M256,0C114.62,0,0,114.62,0,256s114.62,256,256,256c141.389,0,256-114.62,256-256S397.389,0,256,0z M256,486.4
			C128.956,486.4,25.6,383.044,25.6,256c0-58.923,22.426-112.58,58.94-153.361L409.361,427.46
			C368.58,463.974,314.923,486.4,256,486.4z M427.46,409.361L102.639,84.54C143.428,48.026,197.077,25.6,256,25.6
			c127.044,0,230.4,103.356,230.4,230.4C486.4,314.923,463.983,368.58,427.46,409.361z"/>
	</g>
</g>
</svg>