<svg width="1203" height="580" viewBox="0 0 1203 580" fill="none" xmlns="http://www.w3.org/2000/svg">
<g clip-path="url(#clip0_901_5804)">
<rect width="1203" height="580" fill="#CFCDCD"/>
<g clip-path="url(#clip1_901_5804)">
<path d="M683.606 210.858L730.42 65.0635L607.861 60.1689V210.858H683.606Z" fill="#F5F5F5"/>
<path d="M105.642 473.223L-16.7153 464.513L-17.5859 576.297L105.642 569.279V473.223Z" fill="#F5F5F5"/>
<path d="M305.217 400.236L315.329 409.557L112.338 473.187V624.128L326.581 615.994L739.529 593.608L724.393 494.673L329.862 466.961L332.474 456.272L722.719 483.66L697.135 316.2L310.909 336.174L309.637 329.012L696.064 309.038L682.737 221.655H311.177L-15.1095 253.578L-16.7168 453.681L106.846 462.426L305.217 400.236ZM133.099 609.732C133.099 609.732 134.639 485.28 133.099 480.601L298.787 433.238L320.285 603.362L133.099 609.732Z" fill="#F5F5F5"/>
<path d="M431.457 210.859L451.147 162.92H601.164V59.9179L132.16 41.2393V137.944L-14.3068 155.758L-14.9766 242.565L309.368 210.859H431.457Z" fill="#F5F5F5"/>
<path d="M112.071 40.4474L-13.3676 35.4448L-14.2383 144.673L112.071 129.306V40.4474Z" fill="#F5F5F5"/>
<path d="M68.0024 -153.321L-11.8279 -159.475L-13.2344 17.4143L3.97742 18.0981L68.0024 -153.321Z" fill="#F5F5F5"/>
<path d="M1092.8 493.269L1089.39 474.555L731.156 494.601L746.225 593.249L1055.57 576.477L1092.8 493.269Z" fill="#F5F5F5"/>
<path d="M601.164 173.718H467.287L452.018 210.859H601.164V173.718Z" fill="#F5F5F5"/>
<path d="M1037.48 186.24L702.291 173.788L688.629 216.328L702.76 308.677L1056.24 290.394L1037.48 186.24ZM714.614 216.256L732.629 189.407L1023.76 199.304L1040.63 276.142L724.526 296.297L714.614 216.256Z" fill="#F5F5F5"/>
<path d="M1072.24 379.254L1057.51 297.594L703.832 315.841L717.16 402.792L1072.24 379.254Z" fill="#F5F5F5"/>
<path d="M729.481 483.841L878.225 475.528L848.959 404.916L718.766 413.554L729.481 483.841Z" fill="#F5F5F5"/>
<path d="M1038.02 66.2521H760.157L737.119 65.3164L705.709 163.064L1035.48 175.337L1027.84 132.833L1060.32 70.0671L1038.02 66.2521Z" fill="#F5F5F5"/>
<path d="M1031.19 48.2574L1034.67 1.5788L925.508 -116.215L756.203 -80.2257L814.402 48.2214H1031.19V48.2574ZM918.878 -101.855L1018.93 0.427158L1004.47 32.314L833.288 28.859L790.493 -67.8812L918.878 -101.855Z" fill="#F5F5F5"/>
<path d="M762.03 48.2573H800.606L746.024 -72.1641L604.178 -69.033L607.593 42.1391L762.03 48.2573Z" fill="#F5F5F5"/>
<path d="M350.422 31.8819L600.829 41.851L597.414 -68.8892L350.69 -63.4547C351.293 -26.0255 351.493 13.923 350.422 31.8819Z" fill="#F5F5F5"/>
<path d="M1074.19 390.014L855.59 404.482L884.991 475.13L1087.45 463.829L1074.19 390.014Z" fill="#F5F5F5"/>
<path d="M1061.8 134.416L1069.36 176.596L1205.72 181.67L1206.39 94.8272L1092.27 75.4648L1061.8 134.416Z" fill="#F5F5F5"/>
<path d="M1126.63 494.565L1090.8 574.57L1202.57 568.524L1203.24 484.632C1168.95 479.774 1139.02 475.815 1122.88 474.159L1126.63 494.565Z" fill="#F5F5F5"/>
<path d="M1051.21 49.6245L1206.52 76.0049L1206.92 28.5346L1054.36 7.33667L1051.21 49.6245Z" fill="#F5F5F5"/>
<path d="M1121 463.146C1133.52 464.153 1157.23 466.853 1203.37 473.403L1204.85 289.963L1090.86 295.866L1121 463.146Z" fill="#F5F5F5"/>
<path d="M1089.59 288.705L1204.92 282.731L1205.59 192.505L1071.31 187.502L1089.59 288.705Z" fill="#F5F5F5"/>
<path d="M117.964 856.333L119.103 877.963H125.8L124.661 856.117L656.752 838.015C655.748 852.051 654.743 865.691 653.872 877.963H667.267C668.137 866.375 669.142 852.411 670.214 837.547L785.07 833.66L801.478 877.963H808.309L791.767 833.408L1052.76 824.519L1055.77 877.927H1089.26L1086.18 823.367L1200.43 819.48L1199.56 812.282L1085.77 816.133L1079.61 706.436L1200.16 702.802L1199.76 699.203L1079.41 702.838L1074.32 611.172L1089.12 578.133L1202.57 571.979V568.344L1090.8 574.39L1126.63 494.385L1122.94 473.943C1139.02 475.599 1168.95 479.558 1203.31 484.416L1203.38 473.188C1157.23 466.673 1133.52 463.974 1121 462.931L1090.86 295.651L1204.85 289.748L1204.92 282.514L1089.59 288.489L1071.37 187.286L1205.65 192.288L1205.72 181.455L1069.37 176.381L1061.8 134.201L1092.27 75.2499L1206.39 94.6124L1206.52 75.7538L1051.22 49.4094L1054.36 7.1215L1206.93 28.3194L1206.99 17.1986L1132.85 6.90557L1145.18 -32.4312C1167.41 -28.7962 1188.11 -25.989 1207.33 -23.9376V-27.6445C1188.51 -29.6599 1168.15 -32.4311 1146.32 -35.9941L1158.64 -75.2229L1207.73 -73.1714L1207.8 -80.4054L1147.45 -82.9246L1133.46 -38.2974C1097.76 -45.5314 1018.67 -69.3206 1022.42 -136.981L1208.53 -176.57L1208.6 -181.14L1206.59 -183.876L1022.55 -144.755L1022.35 -314.878H1015.65L1015.86 -143.315L938.302 -126.832L792.838 -314.878C787.346 -312.755 747.298 -315.418 740.4 -314.878L919.55 -122.873L740.4 -84.5442L744.418 -75.7267L604.045 -72.6316L598.62 -316.856H588.574L597.348 -72.4516L350.691 -67.0532C350.289 -94.1894 349.754 -119.562 349.419 -133.67L349.352 -135.218H349.285L334.149 -316.354H327.452L342.521 -135.721L89.1663 -155.264L149.508 -316.821L132.229 -316.857C131.158 -316.857 130.086 -316.785 128.948 -316.785L69.2087 -156.811L-11.2914 -163.038L-11.8942 -160.698V-159.475L67.9362 -153.32L3.9112 18.0984L-13.3006 17.4145L-13.4346 35.4453L112.004 40.4479V129.342L-14.3051 144.71L-14.3722 155.795L132.095 137.98V41.2757L601.032 59.9543V162.957H451.082L431.392 210.895H309.303L-15.0418 242.602L-15.1089 253.579L311.178 221.656H682.737L696.065 309.039L309.637 329.013L310.91 336.175L697.136 316.201L722.719 483.661L332.475 456.272L329.863 466.961L724.394 494.673L739.529 593.609L326.581 615.994L112.338 624.128V473.188L315.33 409.558L305.217 400.237L106.847 462.391L-16.7161 453.645L-16.7832 464.514L105.574 473.188V569.244L-17.6537 576.262L-17.7208 587.131L105.641 580.113V628.015H105.708L113.008 763.804L112.941 763.732L-19.328 791.588L-19.3951 803.213L113.611 775.213L117.562 849.171L-19.7969 853.85V856.261L-19.2611 861.048L117.964 856.333ZM670.749 830.349C671.218 823.943 671.687 817.465 672.156 810.914L776.766 811.058L782.525 826.534L670.749 830.349ZM789.155 826.318L782.726 809.007L767.122 729.974L758.281 672.354L1043.65 660.802L1052.42 817.393L789.155 826.318ZM854.051 591.018L1004.13 582.884L999.916 614.555L865.369 622.365L854.051 591.018ZM847.354 591.378L872.468 660.478L757.21 665.156L746.762 596.812L847.354 591.378ZM1043.25 653.568L879.166 660.226L867.981 629.419L1012.51 621.033L1017.66 582.128L1053.83 580.149L1040.77 609.408L1043.25 653.568ZM848.961 404.915L878.295 475.491L729.551 483.805L718.835 413.517L848.961 404.915ZM884.992 475.131L855.658 404.483L1074.19 390.015L1087.51 463.83L884.992 475.131ZM1035.48 175.337L705.709 163.065L737.118 65.3168L760.157 66.2525L1037.96 66.2885L1060.26 70.0674L1027.78 132.869L1035.48 175.337ZM1015.65 -135.362C1015.32 -116.791 1022.89 -55.5005 1132.32 -34.5186L1119.86 5.25002L1051.82 -4.21522L944.262 -120.21L1015.65 -135.362ZM925.51 -116.179L1034.67 1.61509L1031.19 48.2937H814.404L756.205 -80.1534L925.51 -116.179ZM746.026 -72.1637L800.608 48.2577H762.032L607.595 42.1035L604.179 -69.0686L746.026 -72.1637ZM597.482 -68.8886L600.898 41.8515L350.49 31.8824C351.562 13.9236 351.294 -26.025 350.825 -63.4902L597.482 -68.8886ZM87.8938 -151.773L342.788 -132.123C344.061 -75.2588 345.199 5.32203 343.927 31.5945L24.1366 18.8541L87.8938 -151.773ZM730.421 65.0649L683.608 210.859H607.863V60.1703L730.421 65.0649ZM467.289 173.718H601.099V210.859H452.019L467.289 173.718ZM688.631 216.329L702.293 173.79L1037.49 186.242L1056.24 290.432L702.762 308.715L688.631 216.329ZM1057.51 297.594L1072.25 379.291L717.161 402.792L703.9 315.877L1057.51 297.594ZM731.158 494.601L1089.39 474.591L1092.74 493.306L1055.5 576.478L746.159 593.249L731.158 494.601ZM760.492 730.298L775.761 807.459H672.424C674.232 782.015 675.973 756.57 677.246 737.424C679.456 703.161 679.456 703.161 675.236 702.01L672.089 705.393L665.592 705.573C665.86 708.56 662.713 755.598 659.163 805.876L360.268 728.93L349.686 618.334L740.199 597.172L760.492 730.298ZM323.434 619.737L321.357 761.753L119.906 766.899L112.472 627.799L323.434 619.737ZM120.241 773.773V773.701L120.04 770.462L327.988 765.172L330.131 619.449L342.922 618.766L353.705 731.305L658.761 809.835C658.293 816.817 657.757 823.835 657.288 830.817L124.26 848.92L120.241 773.773Z" fill="white"/>
<path d="M1023.76 199.306L732.629 189.409L714.613 216.257L724.458 296.262L1040.57 276.108L1023.76 199.306Z" fill="#EBEBEB"/>
<path d="M133.1 480.638C134.64 485.28 133.1 609.769 133.1 609.769L320.219 603.398L298.721 433.275L133.1 480.638Z" fill="#EBEBEB"/>
<path d="M993.426 880.498V810.674L675.203 829.626L600.386 376.763L651.261 217.164L-61 183.249L41.7492 -116" stroke="#034CB6" stroke-width="4"/>
<path d="M523.635 469.12V472.225C523.635 472.725 523.51 473.19 523.26 473.62C523.01 474.04 522.67 474.375 522.24 474.625C521.82 474.875 521.36 475 520.86 475C520.49 475 520.12 474.91 519.75 474.73C519.38 474.55 519.08 474.335 518.85 474.085C518.62 474.345 518.325 474.565 517.965 474.745C517.605 474.915 517.23 475 516.84 475H515.625V475.825C515.625 476.385 515.485 476.895 515.205 477.355C514.935 477.825 514.565 478.195 514.095 478.465C513.635 478.735 513.125 478.87 512.565 478.87H511.08C510.52 478.87 510.005 478.735 509.535 478.465C509.075 478.195 508.705 477.825 508.425 477.355C508.155 476.895 508.02 476.385 508.02 475.825V472.48L509.64 472.075V475.825C509.64 476.215 509.78 476.55 510.06 476.83C510.34 477.11 510.68 477.25 511.08 477.25H512.565C512.965 477.25 513.305 477.11 513.585 476.83C513.865 476.55 514.005 476.215 514.005 475.825V469.63H515.625V473.38H516.84C517.18 473.38 517.47 473.26 517.71 473.02C517.96 472.78 518.085 472.49 518.085 472.15V469.63H519.705V472.225C519.705 472.545 519.815 472.82 520.035 473.05C520.265 473.27 520.54 473.38 520.86 473.38C521.18 473.38 521.45 473.265 521.67 473.035C521.9 472.805 522.015 472.535 522.015 472.225V469.525L523.635 469.12ZM517.2 466.525H519.21V465.1L520.59 465.52V467.845H517.2V466.525ZM524.079 477.055L525.384 476.2V469.495L527.004 469.075V477.055L524.979 478.42L524.079 477.055ZM531.763 475C531.213 475 530.703 474.865 530.233 474.595C529.773 474.315 529.403 473.94 529.123 473.47C528.853 473 528.718 472.49 528.718 471.94V465.655L530.323 465.25V471.94C530.323 472.34 530.463 472.68 530.743 472.96C531.033 473.24 531.373 473.38 531.763 473.38L532.048 474.19L531.763 475ZM531.486 474.19L531.771 473.38H533.196C533.186 473.35 533.091 473.225 532.911 473.005C532.741 472.775 532.656 472.42 532.656 471.94C532.656 471.39 532.791 470.885 533.061 470.425C533.341 469.955 533.716 469.585 534.186 469.315C534.656 469.035 535.166 468.895 535.716 468.895H538.776V473.38H539.586L539.856 474.175L539.586 475H531.771L531.486 474.19ZM534.291 471.94C534.291 472.34 534.426 472.68 534.696 472.96C534.976 473.24 535.316 473.38 535.716 473.38H537.156V470.515H535.716C535.316 470.515 534.976 470.655 534.696 470.935C534.426 471.205 534.291 471.54 534.291 471.94ZM535.521 465.925H537.021V467.29H535.521V465.925ZM539.563 475L539.308 474.19L539.578 473.38H539.593C539.983 473.38 540.318 473.24 540.598 472.96C540.888 472.68 541.033 472.34 541.033 471.94V469.63H542.653V472.225C542.653 472.545 542.763 472.82 542.983 473.05C543.213 473.27 543.483 473.38 543.793 473.38C544.113 473.38 544.383 473.27 544.603 473.05C544.833 472.82 544.948 472.545 544.948 472.225V469.63H546.568V472.225C546.568 472.535 546.683 472.805 546.913 473.035C547.143 473.265 547.413 473.38 547.723 473.38C548.043 473.38 548.313 473.265 548.533 473.035C548.763 472.805 548.878 472.535 548.878 472.225V469.525L550.483 469.12V472.225C550.483 472.725 550.358 473.19 550.108 473.62C549.868 474.04 549.533 474.375 549.103 474.625C548.683 474.875 548.223 475 547.723 475C547.373 475 547.018 474.92 546.658 474.76C546.308 474.59 546.008 474.38 545.758 474.13C545.508 474.4 545.213 474.615 544.873 474.775C544.533 474.925 544.173 475 543.793 475C543.433 475 543.063 474.905 542.683 474.715C542.313 474.525 542.008 474.3 541.768 474.04C541.488 474.34 541.158 474.575 540.778 474.745C540.408 474.915 540.013 475 539.593 475H539.563ZM567.83 475C567.4 475 566.99 474.91 566.6 474.73C566.22 474.54 565.9 474.29 565.64 473.98C565.35 474.3 565.005 474.55 564.605 474.73C564.215 474.91 563.795 475 563.345 475H556.49C555.93 475 555.415 474.865 554.945 474.595C554.485 474.315 554.115 473.945 553.835 473.485C553.565 473.015 553.43 472.5 553.43 471.94V469.48L555.05 469.075V471.94C555.05 472.34 555.19 472.68 555.47 472.96C555.75 473.24 556.09 473.38 556.49 473.38H563.345C563.745 473.38 564.085 473.24 564.365 472.96C564.645 472.68 564.785 472.34 564.785 471.94V469.48L566.42 469.075V471.94C566.42 472.34 566.555 472.68 566.825 472.96C567.095 473.24 567.43 473.38 567.83 473.38L568.115 474.19L567.83 475ZM558.245 469.255H561.635V470.59H558.245V469.255ZM567.55 474.19L567.835 473.38H569.26C569.25 473.35 569.155 473.225 568.975 473.005C568.805 472.775 568.72 472.42 568.72 471.94C568.72 471.39 568.855 470.885 569.125 470.425C569.405 469.955 569.78 469.585 570.25 469.315C570.72 469.035 571.23 468.895 571.78 468.895H574.84V475H567.835L567.55 474.19ZM570.355 471.94C570.355 472.34 570.49 472.68 570.76 472.96C571.04 473.24 571.38 473.38 571.78 473.38H573.22V470.515H571.78C571.38 470.515 571.04 470.655 570.76 470.935C570.49 471.205 570.355 471.54 570.355 471.94ZM571.75 465.925H573.25V467.29H571.75V465.925ZM579.385 475C578.835 475 578.325 474.865 577.855 474.595C577.395 474.315 577.025 473.94 576.745 473.47C576.475 473 576.34 472.49 576.34 471.94V465.655L577.945 465.25V471.94C577.945 472.34 578.085 472.68 578.365 472.96C578.655 473.24 578.995 473.38 579.385 473.38L579.67 474.19L579.385 475ZM579.348 475L579.108 474.19L579.378 473.38H579.393C579.783 473.38 580.118 473.24 580.398 472.96C580.678 472.68 580.818 472.34 580.818 471.94V469.48L582.453 469.075V471.94C582.453 472.5 582.313 473.015 582.033 473.485C581.763 473.945 581.393 474.315 580.923 474.595C580.453 474.865 579.943 475 579.393 475H579.348ZM577.908 476.5H581.298V477.835H577.908V476.5ZM582.893 477.055L584.198 476.2V469.495L585.818 469.075V477.055L583.793 478.42L582.893 477.055ZM587.143 473.38H590.458V471.94C590.458 471.54 590.318 471.205 590.038 470.935C589.758 470.655 589.413 470.515 589.003 470.515H587.458V468.895H589.003C589.563 468.895 590.078 469.035 590.548 469.315C591.018 469.585 591.388 469.955 591.658 470.425C591.928 470.885 592.063 471.39 592.063 471.94V475H587.143V473.38Z" fill="white"/>
</g>
</g>
<defs>
<clipPath id="clip0_901_5804">
<rect width="1203" height="580" fill="white"/>
</clipPath>
<clipPath id="clip1_901_5804">
<rect width="1229" height="1195" fill="white" transform="translate(-20 -317)"/>
</clipPath>
</defs>
</svg>
