<svg width="20" height="20" viewBox="0 0 20 20" fill="none" xmlns="http://www.w3.org/2000/svg">
<path d="M10 13.125C8.275 13.125 6.875 11.725 6.875 10C6.875 8.275 8.275 6.875 10 6.875C11.725 6.875 13.125 8.275 13.125 10C13.125 11.725 11.725 13.125 10 13.125ZM10 8.125C8.96667 8.125 8.125 8.96667 8.125 10C8.125 11.0333 8.96667 11.875 10 11.875C11.0333 11.875 11.875 11.0333 11.875 10C11.875 8.96667 11.0333 8.125 10 8.125Z" fill="#003D95"/>
<path d="M12.6763 18.4917C12.5013 18.4917 12.3263 18.4667 12.1513 18.4251C11.6346 18.2834 11.2013 17.9584 10.9263 17.5001L10.8263 17.3334C10.3346 16.4834 9.65964 16.4834 9.16797 17.3334L9.0763 17.4917C8.8013 17.9584 8.36797 18.2917 7.8513 18.4251C7.3263 18.5667 6.78464 18.4917 6.3263 18.2167L4.89297 17.3917C4.38464 17.1001 4.01797 16.6251 3.85964 16.0501C3.70964 15.4751 3.78464 14.8834 4.0763 14.3751C4.31797 13.9501 4.38464 13.5667 4.24297 13.3251C4.1013 13.0834 3.74297 12.9417 3.2513 12.9417C2.03464 12.9417 1.04297 11.9501 1.04297 10.7334V9.26674C1.04297 8.05008 2.03464 7.05841 3.2513 7.05841C3.74297 7.05841 4.1013 6.91674 4.24297 6.67508C4.38464 6.43341 4.3263 6.05008 4.0763 5.62508C3.78464 5.11674 3.70964 4.51674 3.85964 3.95008C4.00964 3.37508 4.3763 2.90008 4.89297 2.60841L6.33464 1.78341C7.2763 1.22508 8.51797 1.55008 9.08464 2.50841L9.18464 2.67508C9.6763 3.52508 10.3513 3.52508 10.843 2.67508L10.9346 2.51674C11.5013 1.55008 12.743 1.22508 13.693 1.79174L15.1263 2.61674C15.6346 2.90841 16.0013 3.38341 16.1596 3.95841C16.3096 4.53341 16.2346 5.12508 15.943 5.63341C15.7013 6.05841 15.6346 6.44174 15.7763 6.68341C15.918 6.92508 16.2763 7.06674 16.768 7.06674C17.9846 7.06674 18.9763 8.05841 18.9763 9.27508V10.7417C18.9763 11.9584 17.9846 12.9501 16.768 12.9501C16.2763 12.9501 15.918 13.0917 15.7763 13.3334C15.6346 13.5751 15.693 13.9584 15.943 14.3834C16.2346 14.8917 16.318 15.4917 16.1596 16.0584C16.0096 16.6334 15.643 17.1084 15.1263 17.4001L13.6846 18.2251C13.368 18.4001 13.0263 18.4917 12.6763 18.4917ZM10.0013 15.4084C10.743 15.4084 11.4346 15.8751 11.9096 16.7001L12.0013 16.8584C12.1013 17.0334 12.268 17.1584 12.468 17.2084C12.668 17.2584 12.868 17.2334 13.0346 17.1334L14.4763 16.3001C14.693 16.1751 14.8596 15.9667 14.9263 15.7167C14.993 15.4667 14.9596 15.2084 14.8346 14.9917C14.3596 14.1751 14.3013 13.3334 14.668 12.6917C15.0346 12.0501 15.793 11.6834 16.743 11.6834C17.2763 11.6834 17.7013 11.2584 17.7013 10.7251V9.25841C17.7013 8.73341 17.2763 8.30008 16.743 8.30008C15.793 8.30008 15.0346 7.93341 14.668 7.29174C14.3013 6.65008 14.3596 5.80841 14.8346 4.99174C14.9596 4.77508 14.993 4.51674 14.9263 4.26674C14.8596 4.01674 14.7013 3.81674 14.4846 3.68341L13.043 2.85841C12.6846 2.64174 12.2096 2.76674 11.993 3.13341L11.9013 3.29174C11.4263 4.11674 10.7346 4.58341 9.99297 4.58341C9.2513 4.58341 8.55964 4.11674 8.08464 3.29174L7.99297 3.12508C7.78464 2.77508 7.31797 2.65008 6.95964 2.85841L5.51797 3.69174C5.3013 3.81674 5.13464 4.02508 5.06797 4.27508C5.0013 4.52508 5.03464 4.78341 5.15964 5.00008C5.63464 5.81674 5.69297 6.65841 5.3263 7.30008C4.95964 7.94174 4.2013 8.30841 3.2513 8.30841C2.71797 8.30841 2.29297 8.73341 2.29297 9.26674V10.7334C2.29297 11.2584 2.71797 11.6917 3.2513 11.6917C4.2013 11.6917 4.95964 12.0584 5.3263 12.7001C5.69297 13.3417 5.63464 14.1834 5.15964 15.0001C5.03464 15.2167 5.0013 15.4751 5.06797 15.7251C5.13464 15.9751 5.29297 16.1751 5.50964 16.3084L6.9513 17.1334C7.1263 17.2417 7.33464 17.2667 7.5263 17.2167C7.7263 17.1667 7.89297 17.0334 8.0013 16.8584L8.09297 16.7001C8.56797 15.8834 9.25964 15.4084 10.0013 15.4084Z" fill="#003D95"/>
</svg>
