<svg width="90" height="16" viewBox="0 0 90 16" fill="none" xmlns="http://www.w3.org/2000/svg">
<path opacity="0.9" d="M22.5624 3.84H19.2504L17.3064 15H12.7464L14.6904 3.84H11.4024L12.0984 0H23.2584L22.5624 3.84ZM12.0024 14.928L1.82644 13.848H12.1944L12.0024 14.928ZM12.8184 10.296L2.64244 9.216H13.0104L12.8184 10.296ZM13.2264 7.992L3.05044 6.912H13.4184L13.2264 7.992ZM13.6344 5.688L3.45844 4.608H13.8264L13.6344 5.688ZM12.4104 12.6L2.23444 11.52H12.6024L12.4104 12.6ZM10.7544 3.384L0.578437 2.304H10.9224L10.7544 3.384ZM11.1384 1.08L0.986437 0H11.3304L11.1384 1.08ZM28.875 15.1758C27.8203 15.1758 26.918 14.9688 26.168 14.5547C25.418 14.1406 24.8438 13.5391 24.4453 12.75C24.0547 11.9531 23.8594 10.9961 23.8594 9.87891V7.89844C23.8594 6.79688 24.0547 5.85547 24.4453 5.07422C24.8438 4.28516 25.418 3.6875 26.168 3.28125C26.918 2.86719 27.8203 2.66016 28.875 2.66016C29.9297 2.66016 30.832 2.86719 31.582 3.28125C32.332 3.6875 32.9023 4.28516 33.293 5.07422C33.6914 5.85547 33.8906 6.79688 33.8906 7.89844V9.91406C33.8906 11.0234 33.6914 11.9727 33.293 12.7617C32.9023 13.543 32.332 14.1406 31.582 14.5547C30.832 14.9688 29.9297 15.1758 28.875 15.1758ZM28.875 12.9023C29.7109 12.9023 30.3555 12.6406 30.8086 12.1172C31.2695 11.5938 31.5 10.8594 31.5 9.91406V7.89844C31.5 6.95312 31.2695 6.22266 30.8086 5.70703C30.3555 5.19141 29.7109 4.93359 28.875 4.93359C28.0391 4.93359 27.3906 5.19141 26.9297 5.70703C26.4766 6.22266 26.25 6.95312 26.25 7.89844V9.91406C26.25 10.8594 26.4766 11.5938 26.9297 12.1172C27.3906 12.6406 28.0391 12.9023 28.875 12.9023ZM37.2891 2.83594H39.6797V15H37.2891V2.83594ZM44.6719 7.62891C44.6719 6.76953 44.4492 6.10547 44.0039 5.63672C43.5586 5.16797 42.9336 4.93359 42.1289 4.93359C41.3477 4.93359 40.7422 5.14062 40.3125 5.55469C39.8906 5.96875 39.6797 6.55078 39.6797 7.30078L39.4336 4.95703C39.8086 4.22266 40.2969 3.65625 40.8984 3.25781C41.5078 2.85938 42.1797 2.66016 42.9141 2.66016C44.2344 2.66016 45.2539 3.09375 45.9727 3.96094C46.6992 4.82031 47.0625 6.03906 47.0625 7.61719V15H44.6719V7.62891ZM50.6953 2.83594H53.0859V15H50.6953V2.83594ZM57.3867 5.71875C57.1758 5.46094 56.9102 5.26562 56.5898 5.13281C56.2695 5 55.8984 4.93359 55.4766 4.93359C54.7188 4.93359 54.1289 5.14453 53.707 5.56641C53.293 5.98047 53.0859 6.55859 53.0859 7.30078L52.8398 4.95703C53.2148 4.23047 53.6992 3.66797 54.293 3.26953C54.8867 2.86328 55.543 2.66016 56.2617 2.66016C56.8164 2.66016 57.3164 2.74219 57.7617 2.90625C58.2148 3.0625 58.6094 3.29688 58.9453 3.60938L57.3867 5.71875ZM65.3672 15.1758C64.3125 15.1758 63.4102 14.9688 62.6602 14.5547C61.9102 14.1406 61.3359 13.5391 60.9375 12.75C60.5469 11.9531 60.3516 10.9961 60.3516 9.87891V7.89844C60.3516 6.79688 60.5469 5.85547 60.9375 5.07422C61.3359 4.28516 61.9102 3.6875 62.6602 3.28125C63.4102 2.86719 64.3125 2.66016 65.3672 2.66016C66.4219 2.66016 67.3242 2.86719 68.0742 3.28125C68.8242 3.6875 69.3945 4.28516 69.7852 5.07422C70.1836 5.85547 70.3828 6.79688 70.3828 7.89844V9.91406C70.3828 11.0234 70.1836 11.9727 69.7852 12.7617C69.3945 13.543 68.8242 14.1406 68.0742 14.5547C67.3242 14.9688 66.4219 15.1758 65.3672 15.1758ZM65.3672 12.9023C66.2031 12.9023 66.8477 12.6406 67.3008 12.1172C67.7617 11.5938 67.9922 10.8594 67.9922 9.91406V7.89844C67.9922 6.95312 67.7617 6.22266 67.3008 5.70703C66.8477 5.19141 66.2031 4.93359 65.3672 4.93359C64.5312 4.93359 63.8828 5.19141 63.4219 5.70703C62.9688 6.22266 62.7422 6.95312 62.7422 7.89844V9.91406C62.7422 10.8594 62.9688 11.5938 63.4219 12.1172C63.8828 12.6406 64.5312 12.9023 65.3672 12.9023ZM72.2578 2.83594H74.7539L76.9102 11.5195L79.9453 2.83594H81.6094L84.6445 11.5195L86.8008 2.83594H89.2969L85.5469 15H83.7422L80.7773 6.59766L77.8125 15H76.0078L72.2578 2.83594Z" fill="#1D2939"/>
</svg>
