<svg width="44" height="101" viewBox="0 0 44 101" fill="none" xmlns="http://www.w3.org/2000/svg">
<path d="M27.519 2.7321C27.9601 2.39647 28.0553 1.76378 27.7315 1.31893C27.4077 0.874091 26.7875 0.785552 26.3463 1.12118L27.519 2.7321ZM0.121496 96.6415C-0.0402028 97.176 0.252561 97.7371 0.775401 97.8947L9.29554 100.463C9.81838 100.62 10.3733 100.315 10.535 99.7804C10.6967 99.2459 10.4039 98.6849 9.88111 98.5273L2.30764 96.2444L4.64988 88.502C4.81158 87.9675 4.51882 87.4064 3.99598 87.2488C3.47314 87.0912 2.91821 87.3968 2.75651 87.9313L0.121496 96.6415ZM1.53056 97.813C2.46671 97.2975 3.38382 96.7871 4.28219 96.2815L3.34112 94.5183C2.44833 95.0208 1.53666 95.5282 0.605801 96.0408L1.53056 97.813ZM9.45003 93.3057C11.2782 92.2274 13.0175 91.1722 14.671 90.1392L13.6509 88.4229C12.0128 89.4463 10.2882 90.4926 8.47368 91.5629L9.45003 93.3057ZM19.6806 86.904C21.4379 85.728 23.079 84.5821 24.6093 83.4645L23.4684 81.8299C21.9623 82.9298 20.344 84.06 18.6075 85.2219L19.6806 86.904ZM29.4554 79.7213C31.153 78.3263 32.6695 76.9766 34.0167 75.6686L32.6591 74.2168C31.357 75.481 29.8831 76.7934 28.2231 78.1575L29.4554 79.7213ZM38.1309 71.1665C39.6068 69.3032 40.7254 67.5187 41.5217 65.8002L39.7314 64.9589C39.0154 66.5041 37.9896 68.1513 36.5948 69.9122L38.1309 71.1665ZM43.0646 59.5852C43.116 57.3393 42.5908 55.2595 41.6623 53.3205L39.8787 54.2242C40.69 55.9184 41.1263 57.6833 41.0833 59.5648L43.0646 59.5852ZM38.1153 48.19C36.8035 46.7297 35.3053 45.3349 33.72 43.9847L32.4367 45.5397C33.9827 46.8564 35.4111 48.1892 36.6449 49.5627L38.1153 48.19ZM29.0372 40.2312C27.4529 39.0092 25.8727 37.8111 24.3429 36.598L23.1124 38.1964C24.6558 39.4202 26.2603 40.637 27.8273 41.8456L29.0372 40.2312ZM19.8811 32.8007C18.386 31.3961 17.0805 29.9749 16.0516 28.5092L14.4342 29.697C15.5654 31.3084 16.9716 32.8311 18.5268 34.2922L19.8811 32.8007ZM13.7773 23.4582C13.4536 21.78 13.5397 19.9898 14.1785 18.0361L12.299 17.4214C11.555 19.6967 11.4406 21.8412 11.8325 23.8723L13.7773 23.4582ZM16.8737 12.9767C17.8751 11.5938 19.1323 10.1363 20.6805 8.59715L19.3056 7.16235C17.6938 8.76472 16.3612 10.3055 15.2841 11.7931L16.8737 12.9767ZM25.0837 4.65215C25.8508 4.02391 26.662 3.38402 27.519 2.7321L26.3463 1.12118C25.4713 1.78683 24.641 2.44173 23.854 3.08629L25.0837 4.65215Z" fill="#6168FF"/>
</svg>
