<svg width="66" height="79" viewBox="0 0 66 79" fill="none" xmlns="http://www.w3.org/2000/svg">
<path d="M2.16257 1.34107C2.18987 0.783939 1.76914 0.314987 1.22284 0.293638C0.676548 0.27229 0.21156 0.70663 0.184263 1.26376L2.16257 1.34107ZM56.3721 77.7258C56.7189 78.1529 57.3429 78.2086 57.7659 77.8501L64.6597 72.0094C65.0827 71.6509 65.1446 71.0142 64.7979 70.5871C64.4511 70.16 63.8271 70.1044 63.4041 70.4628L57.2763 75.6546L52.2538 69.4684C51.907 69.0413 51.283 68.9856 50.86 69.3441C50.4369 69.7025 50.3751 70.3392 50.7218 70.7663L56.3721 77.7258ZM0.184263 1.26376C0.131958 2.33133 0.10865 3.36152 0.113287 4.35593L2.09404 4.32286C2.08958 3.36718 2.11197 2.37385 2.16257 1.34107L0.184263 1.26376ZM0.535422 10.3959C0.852453 12.5912 1.34259 14.5702 1.98791 16.3599L3.84804 15.644C3.25348 13.9951 2.79437 12.1511 2.49515 10.0792L0.535422 10.3959ZM4.80615 21.8275C6.02456 23.5555 7.43965 25.02 9.00235 26.2815L10.2431 24.693C8.80889 23.5353 7.52285 22.2019 6.41918 20.6366L4.80615 21.8275ZM14.099 29.5254C15.8491 30.4113 17.6926 31.1659 19.5842 31.8445L20.2611 29.9391C18.4201 29.2787 16.6549 28.5545 14.9966 27.715L14.099 29.5254ZM25.1886 33.6562C27.0617 34.2176 28.9127 34.7493 30.7813 35.3192L31.3693 33.3843C29.505 32.8158 27.6027 32.2686 25.7677 31.7186L25.1886 33.6562ZM36.2652 37.1448C38.0774 37.8193 39.8343 38.5663 41.507 39.4322L42.4202 37.6298C40.6609 36.7191 38.8288 35.9415 36.9636 35.2472L36.2652 37.1448ZM46.2828 42.4639C47.738 43.6032 49.0814 44.9042 50.2843 46.4122L51.8269 45.1275C50.5209 43.4902 49.0662 42.0829 47.5008 40.8574L46.2828 42.4639ZM53.2667 51.2226C54.0242 52.8242 54.6705 54.6037 55.1854 56.5894L57.1008 56.0523C56.5561 53.9516 55.8678 52.0517 55.0528 50.3287L53.2667 51.2226ZM56.2224 62.3024C56.4265 64.0998 56.5445 66.0299 56.5675 68.1048L58.5482 68.0585C58.5245 65.92 58.4027 63.9199 58.1901 62.0473L56.2224 62.3024ZM56.3984 73.9729C56.3346 74.9511 56.2529 75.9561 56.1525 76.989L58.1237 77.1648C58.226 76.111 58.3095 75.0842 58.3748 74.0834L56.3984 73.9729Z" fill="#C84040"/>
</svg>
